<svg width="7820" height="5531" viewBox="0 0 7820 5531" fill="none" xmlns="http://www.w3.org/2000/svg">
<path d="M1336.33 1860.3L1562.68 1736.15L1543.76 1852.73L1501.36 2076.06L1473.35 2255.48L1461.24 2395.53L1465.03 2503.78L1396.14 2586.3L1341.63 2701.37V2741.49L1380.24 2789.18L1384.02 2817.95L1392.35 2830.82V2917.12L1413.55 2958.76V3070.04L1418.85 3154.83L1433.23 3174.51L1427.93 3209.34L1413.55 3320.62L1404.46 3399.35L1409.01 3456.89L1413.55 3492.47L1418.09 3506.09V3627.22L1424.15 3640.09V3697.62L1484.71 3822.53L1486.22 3828.59L1502.88 3847.52V3861.9L1487.74 3889.91L1465.03 3895.97L1462 3908.84L1446.86 3927.01L1407.49 3952.74L1403.71 3936.09L1396.14 3943.66C1386.8 3954.26 1367.67 3975.46 1365.86 3975.46C1364.04 3975.46 1358.54 3970.41 1356.01 3967.88L1346.17 3962.59H1331.79L1324.22 3970.91L1313.62 3967.88H1303.02L1284.1 3980L1272.74 3975.46L1270.47 3962.59L1260.63 3956.53L1256.09 3940.63H1245.49L1237.92 3927.01L1220.51 3935.33L1180.38 3914.14L836.69 3884.61L658.787 3753.64L457.416 3625.71H282.541L56.1885 3690.81L162.173 3506.85L280.27 3403.9L291.626 3388.75L402.153 3269.9L551.288 3071.56L645.917 2998.88L779.912 2657.46L1025.95 2063.19C1072.63 2011.71 1165.39 1908.15 1162.97 1905.73C1160.55 1903.3 1277.54 1874.44 1336.33 1860.3Z" stroke="black" stroke-width="10"/>
</svg>
