<svg width="7820" height="5531" viewBox="0 0 7820 5531" fill="none" xmlns="http://www.w3.org/2000/svg">
<path d="M1558.9 1736.91L1658.83 1797.47L2330.32 2187.34L2349.24 2211.57L2416.62 2247.91L2449.93 2255.48L2471.88 2270.62V2297.11L2458.26 2332.69L2444.63 2354.65V2369.79L2441.6 2379.63L2425.7 2428.08L2405.26 2506.05V2528.76L2369.68 2618.09L2365.14 2730.14L2376.5 2774.8L2390.12 2813.41V2862.62L2385.58 2939.08L2394.67 2961.03L2407.53 2978.44L2419.65 2986.01V3004.18L2404.51 3010.99L2427.97 3014.02L2439.33 3010.99L2458.26 3014.02V3028.41L2447.66 3037.49L2439.33 3048.09L2444.63 3061.72L2450.69 3073.07L2447.66 3087.46L2458.26 3096.54L2467.34 3109.41L2484.75 3116.98L2509.73 3122.28L2516.55 3135.91L2523.36 3158.62L2537.74 3178.3L2547.59 3190.41L2558.94 3194.95L2578.62 3200.25L2606.63 3194.95L2619.5 3190.41H2642.97L2666.44 3166.94C2673.25 3165.43 2686.88 3163.31 2686.88 3166.94C2686.88 3170.58 2688.39 3177.54 2689.15 3180.57L2680.82 3190.41L2670.23 3200.25L2666.44 3208.58L2660.38 3218.42L2652.81 3224.48L2649.79 3228.26C2650.79 3230.79 2652.81 3236.29 2652.81 3238.1C2652.81 3240.38 2662.65 3247.95 2666.44 3250.22C2670.23 3252.49 2674.77 3260.06 2677.8 3263.84C2680.22 3266.87 2686.38 3270.15 2689.15 3271.41C2693.19 3269.4 2702.17 3266.57 2705.81 3271.41C2710.35 3277.47 2715.65 3285.8 2716.4 3288.07C2717.01 3289.89 2731.8 3319.11 2739.12 3333.49C2738.11 3335.51 2735.94 3340.15 2735.33 3342.58C2734.57 3345.6 2729.27 3366.8 2729.27 3371.34C2729.27 3374.98 2724.23 3385.47 2721.7 3390.27V3408.44L2712.62 3422.06C2704.8 3428.12 2689.15 3440.69 2689.15 3442.5C2689.15 3444.32 2681.58 3449.82 2677.8 3452.35L2674.77 3460.67V3486.41L2668.71 3500.8L2646 3520.48L2615.72 3558.33L2625.56 3578.77C2625.56 3583.56 2625.56 3593.76 2625.56 3596.18C2625.56 3598.6 2625.56 3606.78 2625.56 3610.57L2619.5 3615.86V3637.82L2615.72 3652.96L2596.04 3650.69L2574.08 3670.37H2530.93L2545.31 3647.66H2555.91L2530.93 3650.69V3631.01V3624.95H2510.49L2499.14 3615.86H2487.02L2472.64 3624.95H2455.98L2443.87 3610.57C2437.06 3612.33 2422.98 3615.86 2421.16 3615.86C2419.34 3615.86 2405.77 3615.86 2399.21 3615.86L2384.82 3631.01L2346.97 3643.87L2371.95 3652.96L2380.28 3667.34L2375.74 3682.48L2362.11 3688.54L2343.19 3692.32L2329.56 3696.87L2371.95 3726.39H2393.15C2397.19 3728.66 2406.02 3733.51 2409.05 3734.72C2412.08 3735.93 2423.43 3741.28 2428.73 3743.8L2443.12 3752.89C2445.89 3758.44 2452.35 3770 2455.98 3771.81C2459.62 3773.63 2473.65 3785.19 2480.21 3790.74L2491.57 3803.61L2494.59 3817.99L2486.27 3860.39L2483.24 3880.83V3888.4L2474.91 3894.45C2467.09 3892.43 2450.69 3888.4 2447.66 3888.4C2443.87 3888.4 2435.54 3884.61 2433.27 3883.85C2431.46 3883.25 2419.9 3883.6 2414.35 3883.85L2397.69 3895.97L2382.55 3912.62L2365.9 3914.14L2354.54 3905.81L2344.7 3908.84L2352.27 3920.19H2374.98L2397.69 3916.41C2398.96 3911.86 2401.93 3902.48 2403.75 3901.27C2405.57 3900.05 2415.61 3892.18 2420.4 3888.4C2424.44 3889.41 2432.67 3891.73 2433.27 3892.94C2433.88 3894.15 2439.08 3898.99 2441.6 3901.27L2434.79 3918.68L2424.95 3927.76L2418.13 3935.33C2416.87 3937.35 2414.35 3941.84 2414.35 3943.66C2414.35 3945.48 2414.35 3952.49 2414.35 3955.77C2414.1 3959.56 2414.05 3967.88 2415.86 3970.91C2418.13 3974.7 2424.95 3982.27 2424.95 3983.03C2424.95 3983.63 2440.59 3991.86 2448.41 3995.9H2466.58C2474.15 3997.16 2489.75 3999.98 2491.57 4001.19C2493.38 4002.41 2509.48 4007.76 2517.3 4010.28L2596.04 4067.06L2616.48 4076.14H2632.37C2635.4 4078.66 2642.06 4084.01 2644.49 4085.22C2646.91 4086.44 2661.14 4095.82 2667.95 4100.37L2702.02 4117.02H2728.52H2746.69C2751.48 4121.31 2761.52 4130.04 2763.34 4130.65C2765.16 4131.25 2769.14 4132.92 2770.91 4133.68L2787.57 4135.95L2864.03 4133.68L2904.15 4119.29L2920.8 4117.02L2948.06 4083.71L2959.41 4058.73L3000.29 4064.79L3054.8 4077.65L3094.16 4089.01L3115.36 4092.04L3203.93 4107.94L3331.12 4138.22L3410.6 4153.36L3513.56 4175.31L3586.99 4193.48L3593.81 4198.78L3586.99 4208.62H3568.82C3558.23 4214.43 3536.57 4226.03 3534.76 4226.03C3532.94 4226.03 3511.29 4234.61 3500.69 4238.9L3284.94 4341.86L3135.8 4412.26L3122.17 4415.29L3098.71 4432.7L2965.47 4487.97L2868.57 4538.69H2858.73L2832.99 4568.21L2827.69 4581.84L2813.3 4597.74L2808.01 4606.06L2769.4 4612.12C2754 4622.72 2723.22 4643.92 2723.22 4643.92L2720.95 4716.59L2702.02 4733.25L2669.47 4740.06L2622.53 4770.34L2567.27 4815.76L2524.12 4843.77L2486.27 4812.73L2464.31 4759.74L2455.98 4727.95L2443.87 4709.78L2421.92 4699.18H2409.05L2392.39 4709.78L2377.25 4721.13L2366.65 4696.15L2343.19 4709.78L2322.75 4713.56L2295.49 4708.26C2292.47 4705.99 2286.11 4701.45 2284.9 4701.45C2283.68 4701.45 2273.29 4701.45 2268.24 4701.45L2237.96 4683.28L2231.9 4647.7L2228.87 4608.33L2209.95 4587.9L2197.84 4570.48L2171.34 4541.72L2165.28 4520.52L2139.54 4462.23V4416.05L2125.92 4407.72H2116.83V4361.54L2106.99 4335.8L2111.53 4316.12L2097.91 4307.04L2055.51 4178.34L1960.13 4112.48L1970.73 4035.26L2004.79 3995.14L2012.36 3939.12L2004.79 3874.01L1982.08 3833.13L1960.13 3727.15L1937.42 3552.27L1869.28 3376.64L1882.15 3295.64L1985.11 3115.47L1997.98 3039.76L2047.19 2999.64L2059.3 2828.55L2047.19 2767.23L1984.35 2714.24L1976.78 2670.33L1943.47 2588.57L1926.06 2512.11L1826.13 2189.61L1555.87 1752.05L1547.54 1739.18L1558.9 1736.91Z" stroke="black" stroke-width="10"/>
</svg>
