<svg width="7820" height="5531" viewBox="0 0 7820 5531" fill="none" xmlns="http://www.w3.org/2000/svg">
<path d="M2018.26 1893.31L2105.09 1945.94L2688.62 2284.74L2705.07 2305.79L2763.62 2337.36L2792.56 2343.94L2811.64 2357.1V2380.13L2799.8 2411.05L2787.96 2430.12V2443.28L2785.33 2451.83L2771.51 2493.94L2753.75 2561.7V2581.43L2722.83 2659.06L2718.88 2756.42L2728.75 2795.24L2740.59 2828.79V2871.55L2736.64 2937.99L2744.54 2957.07L2755.72 2972.2L2766.25 2978.78V2994.57L2753.09 3000.49L2773.49 3003.12L2783.35 3000.49L2799.8 3003.12V3015.62L2790.59 3023.52L2783.35 3032.73L2787.96 3044.57L2793.22 3054.44L2790.59 3066.94L2799.8 3074.83L2807.69 3086.01L2822.82 3092.59L2844.53 3097.2L2850.46 3109.04L2856.38 3128.78L2868.88 3145.88L2877.43 3156.41L2887.3 3160.35L2904.4 3164.96L2928.74 3160.35L2939.92 3156.41H2960.32L2980.71 3136.01C2986.63 3134.7 2998.47 3132.85 2998.47 3136.01C2998.47 3139.17 2999.79 3145.22 3000.45 3147.85L2993.21 3156.41L2984 3164.96L2980.71 3172.19L2975.45 3180.75L2968.87 3186.01L2966.24 3189.3C2967.12 3191.49 2968.87 3196.27 2968.87 3197.85C2968.87 3199.82 2977.42 3206.4 2980.71 3208.38C2984 3210.35 2987.95 3216.93 2990.58 3220.22C2992.69 3222.85 2998.04 3225.7 3000.45 3226.8C3003.96 3225.04 3011.76 3222.59 3014.92 3226.8C3018.87 3232.06 3023.47 3239.3 3024.13 3241.27C3024.66 3242.85 3037.51 3268.24 3043.87 3280.74C3042.99 3282.5 3041.1 3286.53 3040.58 3288.64C3039.92 3291.27 3035.32 3309.69 3035.32 3313.64C3035.32 3316.79 3030.93 3325.92 3028.74 3330.08V3345.87L3020.84 3357.71C3014.04 3362.98 3000.45 3373.9 3000.45 3375.47C3000.45 3377.05 2993.87 3381.83 2990.58 3384.03L2987.95 3391.26V3413.63L2982.69 3426.13L2962.95 3443.23L2936.64 3476.13L2945.19 3493.89C2945.19 3498.06 2945.19 3506.92 2945.19 3509.02C2945.19 3511.13 2945.19 3518.23 2945.19 3521.52L2939.92 3526.13V3545.2L2936.64 3558.36L2919.53 3556.39L2900.45 3573.49H2862.95L2875.45 3553.76H2884.66L2862.95 3556.39V3539.28V3534.02H2845.19L2835.32 3526.13H2824.8L2812.3 3534.02H2797.83L2787.3 3521.52C2781.38 3523.06 2769.14 3526.13 2767.56 3526.13C2765.99 3526.13 2754.19 3526.13 2748.49 3526.13L2735.99 3539.28L2703.09 3550.47L2724.8 3558.36L2732.04 3570.86L2728.09 3584.02L2716.25 3589.28L2699.8 3592.57L2687.96 3596.52L2724.8 3622.17H2743.22C2746.73 3624.15 2754.41 3628.36 2757.04 3629.41C2759.67 3630.46 2769.54 3635.11 2774.14 3637.3L2786.64 3645.2C2789.05 3650.02 2794.67 3660.07 2797.83 3661.65C2800.98 3663.22 2813.18 3673.27 2818.88 3678.09L2828.75 3689.28L2831.38 3701.78L2824.14 3738.62L2821.51 3756.38V3762.96L2814.27 3768.22C2807.47 3766.47 2793.22 3762.96 2790.59 3762.96C2787.3 3762.96 2780.06 3759.67 2778.09 3759.01C2776.51 3758.48 2766.47 3758.79 2761.64 3759.01L2747.17 3769.54L2734.01 3784.01L2719.54 3785.32L2709.67 3778.09L2701.12 3780.72L2707.7 3790.59H2727.43L2747.17 3787.3C2748.27 3783.35 2750.85 3775.19 2752.43 3774.14C2754.01 3773.09 2762.74 3766.25 2766.91 3762.96C2770.41 3763.83 2777.56 3765.85 2778.09 3766.9C2778.62 3767.96 2783.13 3772.17 2785.33 3774.14L2779.41 3789.27L2770.85 3797.17L2764.93 3803.74C2763.84 3805.5 2761.64 3809.4 2761.64 3810.98C2761.64 3812.56 2761.64 3818.66 2761.64 3821.51C2761.42 3824.8 2761.38 3832.03 2762.96 3834.66C2764.93 3837.95 2770.85 3844.53 2770.85 3845.19C2770.85 3845.72 2784.45 3852.87 2791.25 3856.37H2807.04C2813.61 3857.47 2827.17 3859.93 2828.75 3860.98C2830.32 3862.03 2844.32 3866.68 2851.11 3868.87L2919.53 3918.21L2937.29 3926.11H2951.11C2953.74 3928.3 2959.53 3932.95 2961.63 3934C2963.74 3935.05 2976.11 3943.21 2982.03 3947.16L3011.63 3961.63H3034.66H3050.45C3054.61 3965.36 3063.34 3972.95 3064.92 3973.47C3066.5 3974 3069.96 3975.45 3071.5 3976.11L3085.97 3978.08L3152.41 3976.11L3187.28 3963.61L3201.75 3961.63L3225.44 3932.69L3235.31 3910.98L3270.83 3916.24L3318.2 3927.42L3352.41 3937.29L3370.83 3939.92L3447.8 3953.74L3558.32 3980.05L3627.39 3993.21L3716.86 4012.29L3780.68 4028.08L3786.6 4032.68L3780.68 4041.23H3764.89C3755.68 4046.28 3736.86 4056.36 3735.28 4056.36C3733.7 4056.36 3714.89 4063.82 3705.68 4067.55L3518.19 4157.02L3388.59 4218.2L3376.75 4220.83L3356.35 4235.96L3240.57 4283.99L3156.36 4328.06H3147.81L3125.44 4353.72L3120.84 4365.56L3108.34 4379.38L3103.73 4386.61L3070.18 4391.88C3056.81 4401.09 3030.05 4419.51 3030.05 4419.51L3028.08 4482.66L3011.63 4497.13L2983.34 4503.05L2942.56 4529.37L2894.53 4568.84L2857.03 4593.18L2824.14 4566.21L2805.06 4520.16L2797.83 4492.53L2787.3 4476.74L2768.22 4467.53H2757.04L2742.57 4476.74L2729.41 4486.61L2720.2 4464.9L2699.8 4476.74L2682.04 4480.03L2658.36 4475.42C2655.73 4473.45 2650.2 4469.5 2649.15 4469.5C2648.1 4469.5 2639.06 4469.5 2634.68 4469.5L2608.36 4453.71L2603.1 4422.79L2600.47 4388.59L2584.02 4370.82L2573.49 4355.69L2550.47 4330.69L2545.21 4312.27L2522.84 4261.62V4221.49L2511 4214.25H2503.1V4174.12L2494.55 4151.75L2498.5 4134.65L2486.66 4126.76L2449.82 4014.92L2366.92 3957.68L2376.13 3890.58L2405.74 3855.72L2412.32 3807.03L2405.74 3750.46L2386 3714.93L2366.92 3622.83L2347.19 3470.87L2287.98 3318.24L2299.16 3247.85L2388.63 3091.28L2399.82 3025.49L2442.58 2990.62L2453.11 2841.95L2442.58 2788.66L2387.98 2742.61L2381.4 2704.45L2352.45 2633.4L2337.32 2566.96L2250.48 2286.71L2015.63 1906.46L2008.39 1895.28L2018.26 1893.31Z" stroke="black" stroke-width="10"/>
</svg>
