<svg width="7820" height="5531" viewBox="0 0 7820 5531" fill="none" xmlns="http://www.w3.org/2000/svg">
<path d="M5776.33 2059.4C5779.36 2059.4 5791.47 2060.16 5795.26 2059.4C5798.29 2058.8 5802.58 2055.62 5804.34 2054.1L5820.24 2045.78L5837.65 2039.72C5839.67 2036.95 5844.01 2031.39 5845.22 2031.39C5846.74 2031.39 5856.58 2018.52 5856.58 2016.25C5856.58 2014.44 5864.65 2011.96 5868.69 2010.95L5886.1 2023.07C5891.91 2026.09 5904.42 2032 5908.06 2031.39C5911.69 2030.79 5914.62 2025.59 5915.63 2023.07L5923.2 1992.03L5917.9 1981.43L5899.73 1973.86V1962.5L5903.51 1952.66L5923.2 1936.76H5931.52C5938.84 1941.56 5953.48 1951.45 5953.48 1952.66C5953.48 1953.87 5968.11 1955.69 5975.43 1956.45C5980.23 1953.67 5990.12 1947.82 5991.33 1946.61C5992.54 1945.39 6001.42 1942.06 6005.71 1940.55L6020.85 1944.33L6032.21 1932.22L6042.81 1908.75L6020.85 1876.2L6009.5 1864.85C6001.68 1862.58 5985.27 1857.73 5982.25 1856.52C5978.46 1855 5951.21 1854.25 5948.18 1854.25C5945.15 1854.25 5939.85 1847.43 5939.85 1845.16C5939.85 1842.89 5936.82 1839.11 5939.85 1834.57C5942.88 1830.02 5948.18 1826.24 5948.18 1823.97C5948.18 1821.7 5948.18 1820.18 5948.18 1817.15C5948.18 1814.13 5948.18 1811.1 5948.18 1807.31C5948.18 1803.53 5953.48 1795.2 5953.48 1784.6C5954.99 1780.82 5961.05 1779.3 5966.35 1776.27C5971.65 1773.25 5983 1774 5986.03 1774C5988.45 1774 5991.58 1774 5992.84 1774C5996.88 1776.27 6005.86 1781.12 6009.5 1782.33C6013.13 1783.54 6026.15 1786.87 6032.21 1788.39H6055.68C6069.56 1777.54 6097.31 1754.93 6097.31 1751.29C6097.31 1746.75 6097.31 1741.45 6101.1 1739.94C6104.88 1738.42 6105.64 1739.18 6118.51 1733.12C6131.38 1727.07 6126.84 1725.55 6129.11 1722.52C6131.38 1719.5 6138.19 1714.95 6141.22 1714.95C6144.25 1714.95 6145.76 1714.2 6154.85 1711.17C6163.93 1708.14 6159.39 1706.63 6163.18 1706.63C6166.96 1706.63 6170.75 1700.57 6177.56 1691.49C6184.37 1682.4 6183.62 1684.67 6188.92 1684.67C6193.15 1684.67 6195.22 1684.67 6195.73 1684.67C6197.5 1686.44 6201.94 1691.18 6205.57 1696.03C6210.11 1702.08 6210.11 1699.81 6212.38 1700.57C6214.65 1701.33 6220.71 1704.36 6225.25 1704.36C6228.89 1704.36 6236.36 1708.9 6239.64 1711.17C6244.18 1713.19 6254.47 1717.22 6259.32 1717.22C6265.38 1717.22 6269.16 1718.74 6271.43 1717.22C6273.7 1715.71 6280.52 1718.74 6285.82 1717.22C6291.11 1715.71 6292.63 1712.68 6297.93 1711.17C6302.17 1709.96 6308.78 1707.64 6311.55 1706.63L6326.7 1704.36H6339.56C6341.58 1702.84 6345.77 1699.06 6346.38 1696.03C6347.14 1692.24 6344.11 1686.94 6342.59 1684.67C6341.38 1682.86 6331.49 1672.31 6326.7 1667.26C6318.12 1662.97 6300.35 1654.24 6297.93 1653.63C6295.51 1653.03 6279.25 1645.31 6271.43 1641.52L6234.34 1570.36V1562.79C6230.55 1562.79 6221.92 1562.79 6217.68 1562.79C6212.38 1562.79 6210.11 1562.79 6205.57 1562.79C6201.03 1562.79 6198.76 1562.79 6195.73 1562.79C6193.31 1562.79 6190.18 1567.84 6188.92 1570.36H6177.56C6169.99 1571.62 6154.24 1574.15 6151.82 1574.15C6148.79 1574.15 6139.71 1574.15 6134.41 1574.15C6130.17 1574.15 6126.08 1571.62 6124.57 1570.36C6123.05 1568.59 6119.72 1564.61 6118.51 1562.79C6117 1560.52 6111.7 1557.49 6110.18 1555.98C6108.97 1554.77 6101.1 1552.44 6097.31 1551.43H6085.2C6084.44 1547.14 6081.57 1537.96 6076.12 1535.54C6069.3 1532.51 6060.22 1532.51 6057.95 1532.51C6055.68 1532.51 6044.32 1534.78 6042.05 1535.54C6039.78 1536.29 6029.94 1538.57 6024.64 1543.86C6019.34 1549.16 6010.26 1548.41 6005.71 1548.41C6001.17 1548.41 5998.14 1548.41 5995.87 1548.41C5994.05 1548.41 5984.52 1543.36 5979.97 1540.84L5957.26 1546.14C5952.97 1546.89 5943.49 1548.41 5939.85 1548.41C5936.22 1548.41 5931.27 1545.38 5929.25 1543.86C5925.72 1543.86 5918.2 1543.86 5916.38 1543.86C5914.57 1543.86 5907.05 1548.91 5903.51 1551.43L5902 1538.57C5902 1532.51 5902 1519.79 5902 1517.37C5902 1514.34 5895.19 1506.77 5892.16 1502.23C5889.13 1497.69 5885.34 1494.66 5881.56 1492.39C5877.77 1490.11 5870.96 1487.09 5867.18 1484.06C5863.39 1481.03 5857.33 1479.52 5853.55 1478C5849.76 1476.49 5849.76 1475.73 5848.25 1473.46C5847.04 1471.64 5844.21 1467.66 5842.95 1465.89L5798.29 1455.29C5792.23 1454.53 5778.3 1452.87 5771.03 1452.26C5761.95 1451.51 5756.65 1449.24 5749.08 1446.21C5741.51 1443.18 5734.7 1443.94 5728.64 1443.94C5722.58 1443.94 5714.26 1446.21 5708.2 1446.21C5702.14 1446.21 5693.06 1449.24 5690.79 1448.48C5688.97 1447.87 5684.48 1446.71 5682.46 1446.21C5678.42 1447.22 5669.59 1449.24 5666.56 1449.24C5662.78 1449.24 5656.72 1452.26 5654.45 1449.24C5652.63 1446.81 5651.67 1446.21 5651.42 1446.21L5623.41 1449.24L5602.97 1461.35L5591.62 1479.52L5627.95 1515.1L5640.82 1525.7L5641.58 1543.86L5645.37 1546.14C5651.42 1546.89 5664.14 1548.41 5666.56 1548.41C5669.59 1548.41 5675.65 1548.41 5678.67 1548.41C5681.7 1548.41 5690.79 1547.65 5693.06 1548.41C5694.88 1549.01 5699.87 1552.19 5702.14 1553.71L5714.26 1562.79L5712.74 1573.39H5699.11L5693.06 1565.06L5646.12 1568.09L5631.74 1578.69C5628.21 1581.46 5620.53 1587.92 5618.11 1591.56C5615.08 1596.1 5618.11 1600.64 5618.11 1604.43C5618.11 1608.21 5621.14 1620.32 5621.14 1624.11C5621.14 1627.89 5623.41 1639.25 5623.41 1642.28C5623.41 1645.31 5621.14 1651.36 5623.41 1656.66C5625.23 1660.9 5622.65 1666 5621.14 1668.02H5608.27H5591.62L5584.05 1682.4C5565.62 1683.16 5528.78 1684.22 5528.78 1682.4C5528.78 1680.58 5523.23 1675.59 5520.45 1673.32C5519.7 1671.3 5517.12 1666.35 5512.88 1662.72C5507.59 1658.18 5508.34 1650.61 5508.34 1645.31C5508.34 1640.01 5495.47 1632.44 5495.47 1627.89C5495.47 1624.26 5501.02 1621.33 5503.8 1620.32L5512.88 1600.64V1591.56L5518.18 1587.02L5537.87 1582.47V1568.09H5528.78C5524.49 1567.33 5515.31 1565.67 5512.88 1565.06C5509.86 1564.3 5509.1 1556.73 5508.34 1553.71C5507.74 1551.28 5505.06 1535.54 5503.8 1527.97L5495.47 1515.1L5477.3 1509.04L5462.16 1502.23L5434.91 1469.68V1452.26L5422.8 1428.8L5397.82 1400.78L5376.62 1395.49H5334.98C5330.19 1391.2 5319.39 1381.86 5314.54 1378.83C5309.7 1375.8 5301.92 1370.5 5298.64 1368.23L5281.23 1365.96C5274.17 1365.2 5259.43 1363.24 5257.01 1361.42C5254.58 1359.6 5241.87 1355.11 5235.81 1353.09C5226.22 1356.88 5206.29 1364.75 5203.26 1365.96C5200.23 1367.17 5178.78 1380.6 5168.43 1387.16L5179.79 1406.84L5161.62 1420.47L5153.29 1453.02L5161.62 1478L5153.29 1493.14L5155.56 1515.1L5135.12 1536.29L5141.94 1552.19L5120.74 1605.94C5111.4 1616.79 5092.73 1639.4 5092.73 1643.04C5092.73 1647.58 5093.49 1654.39 5092.73 1657.42C5092.13 1659.84 5084.91 1665.49 5081.38 1668.02H5071.53L5061.69 1662.72H5046.55L5036.71 1668.02L5014.76 1664.99V1661.96L5024.6 1654.39V1649.85V1638.49V1627.89L5032.17 1615.78L5044.28 1602.16C5040.75 1597.87 5033.38 1588.83 5032.17 1587.02C5030.96 1585.2 5023.08 1576.67 5019.3 1572.63C5013.75 1568.34 5002.04 1559.46 4999.62 1558.25C4997.19 1557.04 4995.58 1549.16 4995.07 1545.38L5007.19 1505.26L5002.64 1491.63C4997.09 1487.59 4985.54 1479.21 4983.72 1478C4981.45 1476.49 4962.52 1465.13 4957.22 1463.62C4951.92 1462.1 4943.6 1448.48 4939.81 1447.72C4936.78 1447.12 4929.46 1440.4 4926.18 1437.12C4926.94 1434.09 4929.06 1428.04 4931.48 1428.04C4933.91 1428.04 4940.57 1419.46 4943.6 1415.17L4962.52 1399.27V1390.19V1380.35L4966.31 1365.96L4979.93 1356.12L4995.07 1344.01L4988.26 1320.54L4973.88 1318.27L4957.22 1307.67H4928.45L4901.2 1380.35L4880 1423.5L4861.08 1440.15L4818.69 1437.12L4798.25 1428.04L4775.53 1411.38L4736.93 1408.36L4715.73 1386.4L4711.94 1373.53L4697.56 1349.31C4692.77 1347.04 4682.72 1342.49 4680.9 1342.49C4678.63 1342.49 4656.68 1342.49 4654.41 1342.49C4652.59 1342.49 4648.1 1339.97 4646.08 1338.71L4627.16 1312.97H4587.03H4543.88L4526.47 1327.35L4495.43 1333.41L4454.55 1354.61L4422.76 1349.31L4385.66 1365.2L4367.49 1359.15L4355.38 1336.44H4327.37L4262.27 1350.06L4219.87 1365.2L4203.97 1359.15L4179.75 1326.6V1322.81L4161.58 1319.78L4149.47 1342.49L4133.57 1365.96L4131.3 1375.8L4140.38 1392.46L4153.25 1403.06L4196.4 1415.17L4199.43 1432.58L4201.7 1442.42L4218.36 1448.48C4221.39 1448.48 4228.2 1448.48 4231.23 1448.48C4234.26 1448.48 4240.56 1441.92 4243.34 1438.64L4281.95 1468.16V1474.97L4270.59 1482.54L4256.21 1489.36C4248.64 1490.62 4233.04 1493.14 4231.23 1493.14C4229.41 1493.14 4214.82 1495.16 4207.76 1496.17L4184.29 1511.31C4184.04 1518.88 4183.69 1534.48 4184.29 1536.29C4184.9 1538.11 4188.58 1555.22 4190.35 1563.55L4213.06 1584.74L4207.76 1642.28L4227.44 1649.85L4252.42 1684.67L4261.51 1688.46H4282.71L4309.96 1693.76L4370.52 1724.04L4381.88 1766.43L4400.8 1795.96L4499.97 1852.73C4506.79 1856.27 4521.17 1863.64 4524.2 1864.85C4527.23 1866.06 4533.03 1869.89 4535.55 1871.66C4540.1 1879.48 4549.18 1895.43 4549.18 1896.64C4549.18 1897.85 4549.18 1914.81 4549.18 1923.14L4591.58 1945.09L4602.17 1960.23C4609.49 1967.8 4624.58 1983.25 4626.4 1984.46C4628.22 1985.67 4637.75 1989.5 4642.3 1991.27C4650.37 1993.79 4667.28 1999.9 4670.31 2004.14C4674.09 2009.44 4694.53 2009.44 4702.86 2012.47C4709.52 2014.89 4728.35 2016.51 4736.93 2017.01L4801.27 2004.14L4823.98 1998.84H4838.37C4843.92 2002.37 4855.63 2009.44 4858.05 2009.44C4860.47 2009.44 4879.25 2009.44 4888.33 2009.44L4905.74 1998.84H4949.65L4961.01 1982.19L4983.72 1976.13L4991.29 1966.29L5014.76 1969.32C5022.83 1968.31 5039.74 1966.29 5042.77 1966.29C5046.55 1966.29 5054.88 1961.75 5058.66 1960.23C5061.69 1959.02 5070.52 1955.19 5074.56 1953.42L5101.06 1935.25L5092.73 1945.09L5084.4 1969.32L5069.26 1998.84L5074.56 2040.48L5124.53 2087.41C5157.84 2103.56 5225.36 2136.62 5229 2139.65C5233.54 2143.43 5252.47 2143.43 5255.49 2143.43C5258.52 2143.43 5277.45 2143.43 5283.5 2143.43C5289.56 2143.43 5327.41 2147.22 5332.71 2147.98C5336.95 2148.58 5343.56 2151.76 5346.34 2153.28C5356.68 2156.81 5379.04 2163.87 5385.7 2163.87C5394.03 2163.87 5394.03 2163.87 5396.3 2166.9C5398.57 2169.93 5401.6 2169.93 5405.39 2173.72C5409.17 2177.5 5415.98 2181.29 5420.53 2181.29C5424.16 2181.29 5429.11 2181.29 5431.12 2181.29C5436.68 2182.04 5448.69 2183.56 5452.32 2183.56C5456.86 2183.56 5469.73 2183.56 5474.28 2183.56C5477.91 2183.56 5485.88 2177 5489.42 2173.72L5505.31 2166.9C5513.39 2170.18 5530.6 2176.74 5534.84 2176.74C5539.08 2176.74 5544.18 2172.2 5546.19 2169.93C5549.98 2168.92 5558 2166.9 5559.82 2166.9C5562.09 2166.9 5566.63 2172.96 5569.66 2173.72C5572.69 2174.47 5586.32 2172.2 5591.62 2169.93C5596.92 2167.66 5606.76 2160.85 5609.78 2163.87C5612.81 2166.9 5624.17 2166.9 5630.98 2166.9C5637.8 2166.9 5643.85 2166.9 5647.64 2166.9C5651.42 2166.9 5661.26 2162.36 5665.05 2160.85C5668.08 2159.64 5669.84 2154.79 5670.35 2152.52V2137.38L5683.97 2114.67H5696.84L5703.66 2126.02H5730.15L5733.18 2111.64L5730.15 2098.01L5733.18 2086.66L5746.05 2083.63L5755.14 2069.25M5776.33 2059.4C5773.91 2059.4 5761.19 2065.96 5755.14 2069.25M5776.33 2059.4L5789.2 2064.7C5790.21 2066.22 5792.84 2070 5795.26 2073.03C5798.29 2076.82 5795.26 2076.82 5799.8 2079.09C5804.34 2081.36 5808.13 2083.63 5822.51 2084.39C5836.89 2085.14 5828.57 2089.69 5833.11 2091.96C5837.65 2094.23 5839.92 2096.5 5842.95 2097.26C5845.98 2098.01 5845.22 2108.61 5847.49 2111.64C5849.31 2114.06 5846.74 2116.69 5845.22 2117.7C5840.93 2126.02 5831.6 2144.04 5828.57 2149.49C5824.78 2156.3 5808.88 2149.49 5804.34 2149.49C5799.8 2149.49 5791.47 2144.95 5789.2 2142.68C5786.93 2140.41 5776.33 2135.86 5776.33 2133.59C5776.33 2131.32 5768 2118.45 5767.25 2114.67C5766.64 2111.64 5765.48 2102.3 5764.98 2098.01L5755.14 2069.25" stroke="black" stroke-width="10"/>
<path d="M5925.47 2262.29L5877.02 2272.89L5874.75 2275.16L5861.12 2279.7L5852.79 2290.3L5871.72 2300.9H5907.3L5954.24 2296.36L5973.16 2312.25L6001.17 2316.04C6008.99 2321.09 6025.25 2331.33 6027.67 2331.94C6030.09 2332.54 6045.84 2329.16 6053.41 2327.39L6095.04 2344.05L6113.97 2380.39L6153.34 2403.1H6201.79C6210.11 2408.9 6227.22 2420.81 6229.04 2422.02C6230.86 2423.23 6239.89 2433.13 6244.18 2437.92L6263.86 2458.36L6305.5 2484.86L6351.68 2509.08C6360.26 2510.34 6378.17 2513.02 6381.2 2513.62C6384.23 2514.23 6393.06 2523.47 6397.1 2528.01C6417.54 2529.27 6459.03 2531.79 6461.45 2531.79H6478.86C6487.19 2531.79 6491.73 2525.74 6496.27 2522.71C6500.81 2519.68 6514.44 2518.17 6519.74 2518.17C6525.04 2518.17 6526.55 2518.17 6533.37 2522.71C6540.18 2527.25 6545.48 2531.79 6552.29 2531.79H6569.7C6578.79 2531.79 6586.36 2522.71 6590.9 2522.71H6608.31L6610.58 2531.79L6653.73 2543.91H6695.37C6703.7 2543.91 6731.71 2541.63 6738.52 2541.63C6743.97 2541.63 6752.91 2535.07 6756.69 2531.79L6774.86 2518.17L6784.7 2504.54H6797.57C6803.88 2508.58 6817.1 2516.95 6819.52 2518.17C6822.55 2519.68 6839.21 2521.95 6841.48 2521.95H6872.52L6895.23 2548.45H6916.42C6921.88 2548.45 6923.24 2554.5 6923.24 2557.53L6927.02 2573.43H6946.71L6980.77 2581V2589.33L6993.64 2601.44C7000.46 2600.18 7015.44 2598.41 7020.9 2601.44C7027.71 2605.23 7031.49 2608.25 7038.31 2612.04C7043.76 2615.07 7050.67 2613.3 7053.45 2612.04C7057.74 2609.51 7067.38 2603.86 7071.62 2601.44C7075.86 2599.02 7086 2595.38 7090.54 2593.87H7095.84L7104.93 2612.04C7105.68 2613.55 7107.35 2617.03 7107.95 2618.85C7108.71 2621.12 7126.12 2628.69 7132.94 2634.75C7139.75 2640.81 7153.38 2643.83 7157.92 2645.35C7161.55 2646.56 7175.08 2648.88 7181.39 2649.89L7225.29 2672.6L7245.73 2678.66C7252.55 2682.95 7266.93 2691.83 7269.96 2693.04C7272.99 2694.25 7294.44 2699.1 7304.78 2701.37C7331.53 2702.38 7386.24 2704.4 7391.08 2704.4H7416.07C7425.91 2704.4 7428.18 2699.1 7434.99 2695.31C7441.81 2691.53 7447.86 2691.53 7456.19 2686.98C7464.52 2682.44 7478.9 2683.96 7487.23 2683.96H7503.88L7512.97 2695.31C7526.59 2706.16 7555.51 2727.86 7562.17 2727.86H7596.24C7601.54 2727.86 7631.82 2729.38 7632.58 2727.86C7633.18 2726.65 7637.37 2720.29 7639.39 2717.27L7643.93 2704.4L7659.07 2691.53C7662.61 2687.49 7670.28 2678.96 7672.7 2677.14C7675.12 2675.33 7691.37 2670.33 7699.2 2668.06C7701.22 2656.2 7705.71 2631.57 7707.52 2627.94C7709.8 2623.39 7710.55 2624.15 7712.82 2621.88C7715.09 2619.61 7715.85 2618.85 7721.15 2616.58C7726.45 2614.31 7730.24 2610.52 7734.02 2608.25C7737.81 2605.98 7734.02 2602.2 7738.56 2599.93C7743.1 2597.65 7742.35 2587.81 7742.35 2584.79C7742.35 2582.36 7736.8 2579.23 7734.02 2577.97C7730.49 2576.71 7721.91 2573.13 7715.85 2568.89C7709.8 2564.65 7713.33 2561.06 7715.85 2559.8V2549.96L7705.25 2537.09L7687.08 2503.03C7685.57 2498.48 7682.54 2488.19 7682.54 2483.34C7682.54 2477.29 7675.73 2468.2 7675.73 2465.17V2459.87C7681.28 2458.36 7692.99 2454.73 7695.41 2452.3C7698.44 2449.28 7695.41 2439.43 7695.41 2437.16C7695.41 2434.89 7693.9 2410.67 7692.38 2405.37C7690.87 2400.07 7684.81 2389.47 7682.54 2385.69C7680.27 2381.9 7666.64 2368.27 7665.13 2365.25C7663.92 2362.82 7649.99 2353.13 7643.18 2348.59L7623.49 2320.58L7618.95 2310.74L7614.41 2291.81L7606.08 2281.21C7599.52 2275.41 7585.79 2263.35 7583.37 2261.53C7580.34 2259.26 7563.69 2246.39 7559.9 2242.61C7556.87 2239.58 7546.53 2235.29 7541.73 2233.52C7529.62 2234.28 7504.94 2235.79 7503.13 2235.79C7501.31 2235.79 7495.3 2230.75 7492.53 2228.22C7489.25 2225.19 7482.53 2218.68 7481.93 2216.87L7475.87 2198.7L7455.43 2180.53C7448.11 2179.52 7433.02 2177.5 7431.21 2177.5C7428.94 2177.5 7395.63 2180.53 7393.36 2180.53C7391.54 2180.53 7372.92 2178.51 7363.83 2177.5L7295.7 2130.57C7293.93 2128.8 7289.04 2123.45 7283.59 2116.18C7278.14 2108.91 7275.26 2113.15 7274.5 2116.18H7267.69C7259.87 2116.43 7243.77 2116.79 7241.95 2116.18C7239.68 2115.42 7235.89 2111.64 7233.62 2107.85C7231.35 2104.07 7231.35 2104.83 7233.62 2098.77C7235.44 2093.92 7232.86 2094.23 7231.35 2094.98L7218.48 2089.69L7202.58 2091.96C7201.07 2092.97 7197.74 2095.59 7196.53 2098.01C7195.01 2101.04 7189.71 2098.77 7183.66 2098.01C7177.6 2097.26 7169.27 2092.71 7166.25 2089.69C7163.82 2087.26 7159.18 2083.12 7157.16 2081.36H7137.48H7117.8C7115.98 2081.36 7109.47 2077.83 7106.44 2076.06L7094.33 2061.68L7080.7 2036.69H7068.59C7062.03 2036.69 7047.69 2036.24 7042.85 2034.42C7036.79 2032.15 7038.31 2031.39 7036.79 2029.88C7035.28 2028.37 7029.98 2029.12 7026.95 2026.85C7023.92 2024.58 7017.11 2027.61 7014.84 2026.85C7013.02 2026.25 7008.03 2024.08 7005.75 2023.07L6999.7 2011.71H6990.61C6986.32 2012.22 6975.78 2013.83 6967.9 2016.25C6960.03 2018.68 6960.08 2008.68 6961.09 2003.38H6952.01C6949.73 2003.38 6929.29 2016.25 6925.51 2016.25C6921.72 2016.25 6877.82 2023.07 6873.27 2023.07H6862.68L6855.86 2016.25L6848.29 2006.41L6838.45 1992.03L6828.61 1984.46L6814.23 1964.77C6805.9 1963.01 6788.64 1959.17 6786.21 1957.96C6783.19 1956.45 6712.03 1945.09 6706.73 1945.09C6701.43 1945.09 6696.88 1944.34 6694.61 1945.09C6692.34 1945.85 6684.02 1950.39 6680.23 1951.15C6676.45 1951.91 6659.03 1954.18 6653.73 1955.69C6649.49 1956.9 6639.35 1962.25 6634.81 1964.77L6631.78 1981.43C6631.28 1994.55 6630.57 2021.25 6631.78 2023.07C6632.99 2024.88 6636.83 2026.35 6638.59 2026.85C6641.62 2032.91 6647.83 2045.63 6648.43 2048.05C6649.04 2050.47 6639.6 2056.63 6634.81 2059.4L6599.23 2064.7L6563.65 2076.06C6538.41 2087.92 6487.04 2111.64 6483.4 2111.64C6479.77 2111.64 6454.63 2114.67 6442.52 2116.18L6344.86 2165.39L6260.83 2168.42L6173.02 2222.17L6083.69 2225.19C6070.82 2226.2 6044.47 2228.37 6042.05 2228.98C6039.02 2229.74 6009.5 2232.76 6004.96 2233.52C6001.32 2234.13 5986.28 2241.85 5979.22 2245.63L5948.94 2262.29H5925.47Z" stroke="black" stroke-width="10"/>
</svg>
