<svg width="7820" height="5531" viewBox="0 0 7820 5531" fill="none" xmlns="http://www.w3.org/2000/svg">
<path d="M1555.12 1734.64L1652.02 1885.29L1801.15 2125.27L1845.06 2201.73L1871.55 2280.46L1918.49 2440.19L1965.43 2607.5L1993.44 2682.44V2706.67L2049.46 2753.6L2063.08 2766.47L2069.14 2822.49L2064.6 2903.5L2058.54 2935.29L2037.35 2967.09L2051.73 2996.61V3012.51L2015.39 3042.03L2004.04 3077.61L1997.98 3115.47L1945.74 3210.85L1897.29 3300.18L1879.88 3369.83L1912.43 3448.56L1941.2 3526.53L1991.17 3820.26L2017.66 3880.83L2027.5 3955.02L2017.66 4007.25L1984.35 4051.16L1976.78 4107.94L2064.6 4170.01L2109.26 4300.22L2125.16 4305.52V4341.1L2130.46 4360.03V4406.21L2119.1 4413.02H2026.75L1975.27 4403.94L1883.67 4376.68H1697.44H1686.84H1609.62H1554.36L1490.77 4388.04L1460.49 4391.07H1425.66L1405.22 4385.01L1349.96 4391.07L1327.25 4400.15L1313.62 4410.75L1294.7 4413.78L1287.88 4451.63V4466.77L1278.04 4475.85L1265.93 4490.24H1250.79L1237.16 4494.78L1227.32 4505.38L1221.26 4515.98C1219.75 4519 1216.72 4525.52 1216.72 4527.33C1216.72 4529.15 1207.64 4531.62 1203.09 4532.63L1184.17 4520.52L1178.87 4509.92L1169.79 4505.38L1159.19 4515.98L1147.07 4518.25L1144.8 4505.38V4494.78L1142.53 4490.24L1122.09 4507.65C1114.77 4507.65 1099.23 4507.65 1095.6 4507.65C1091.05 4507.65 1077.43 4507.65 1072.13 4507.65C1066.83 4507.65 1056.23 4509.92 1053.2 4509.92C1050.78 4509.92 1029.48 4506.89 1019.14 4505.38H1006.27H994.91L988.854 4515.98L963.872 4551.56C957.059 4555.34 942.978 4562.91 941.161 4562.91C938.89 4562.91 924.506 4562.91 920.721 4562.91C917.693 4562.91 900.281 4562.91 891.954 4562.91V4524.3V4509.92L842.747 4471.31L838.205 4453.9L816.251 4449.36L798.839 4422.86L819.279 4372.14L811.708 4353.97V4325.2L829.12 4310.82L815.494 4276L833.662 4259.34L843.504 4270.7L849.56 4273.73L855.616 4259.34L868.486 4262.37L874.542 4282.81L882.87 4294.17L913.908 4291.89L922.992 4282.81L941.918 4288.11L960.087 4265.4L983.555 4262.37L979.013 4243.44V4226.03L1007.78 4223L1032.01 4194.24L1034.28 4167.74L1043.36 4158.66L1066.07 4173.04L1078.18 4177.58L1113.76 4175.31L1141.02 4182.13L1150.1 4189.7L1156.16 4160.17L1161.46 4154.11L1182.65 4173.04V4175.31L1193.25 4139.73V4133.68L1182.65 4127.62L1161.46 4105.66C1159.94 4098.6 1157.37 4084.17 1159.19 4082.95C1161 4081.74 1169.03 4068.32 1172.81 4061.76L1195.52 4042.83L1203.09 4024.66C1203.09 4011.29 1203.09 3984.99 1203.09 3986.81C1203.09 3988.63 1217.73 3991.61 1225.05 3992.87L1239.43 3990.6V3976.21L1220.51 3964.1L1217.48 3928.52L1230.35 3911.86L1243.22 3914.89L1250.79 3924.73C1253.56 3926.75 1259.57 3931.09 1261.39 3932.3C1263.2 3933.52 1269.21 3944.92 1271.98 3950.47L1278.8 3953.5L1284.1 3961.83L1286.37 3965.61L1294.7 3950.47H1306.05C1307.31 3953 1310.29 3958.04 1312.11 3958.04C1314.38 3958.04 1320.43 3960.31 1323.46 3958.04C1325.89 3956.23 1332.04 3949.21 1334.82 3945.93C1333.05 3947.95 1330.28 3951.84 1333.3 3951.23C1336.33 3950.62 1345.16 3947.44 1349.2 3945.93H1352.99L1359.04 3955.77L1362.07 3958.04L1371.91 3953.5L1377.97 3944.42L1398.41 3924.73L1407.49 3920.95C1409.51 3919.69 1413.85 3918.68 1415.06 3924.73C1416.28 3930.79 1418.09 3934.83 1418.85 3936.09L1449.13 3898.24L1454.43 3882.34L1471.84 3886.13L1480.17 3877.8L1486.23 3849.03L1468.81 3826.32L1412.04 3708.22V3641.6L1402.95 3511.39L1392.35 3425.09L1407.49 3272.17L1414.31 3211.61L1426.42 3180.57L1407.49 3161.64L1399.17 3028.41V2958L1381.75 2921.66L1379.48 2827.79L1367.37 2795.24L1329.52 2749.82L1328.01 2701.37L1371.16 2612.04L1455.19 2493.18V2380.39L1467.3 2210.81L1509.69 1996.57L1535.43 1826.24L1555.12 1734.64Z" stroke="black" stroke-width="10"/>
</svg>
