<svg width="7820" height="5531" viewBox="0 0 7820 5531" fill="none" xmlns="http://www.w3.org/2000/svg">
<path d="M3628.05 3225.92H3609.24L3598.71 3214.63L3593.44 3163.46L3609.24 3124.33L3628.05 3096.49L3670.93 3067.15L3718.33 3074.67V3067.15L3734.12 3049.84L3765.72 3040.06L3785.28 3026.51H3816.88L3833.43 3040.06L3862.77 3044.57L3887.59 3022L3924.46 3031.03L3947.78 3040.06H3988.4L4002.7 3049.84L4041.07 3061.13L4067.4 3044.57H4113.29L4141.87 3067.9V3218.39L4161.43 3222.91V3249.24L4176.48 3258.27L4207.32 3265.8H4235.91L4256.22 3276.33L4281.8 3271.82L4305.12 3265.8L4320.92 3271.82C4326.19 3272.07 4337.47 3272.42 4340.48 3271.82C4343.49 3271.21 4357.79 3262.54 4364.56 3258.27L4382.61 3254.51L4395.4 3262.03L4482.67 3283.1L4509 3313.2L4500.72 3325.99L4450.32 3368.88L4435.27 3402.74L4346.5 3535.93L4308.13 3613.43L4263 3770.69L4248.7 3867.01L4220.11 4007.72L4174.98 4127.36L4088.46 4208.62C4058.87 4221.42 3997.43 4247 3988.4 4247C3979.38 4247 3936.49 4242.99 3916.18 4240.98L3769.48 4199.6H3731.11H3581.41L3410.63 4159.72L3159.36 4112.31L2969.03 4069.42L2960 4063.4L2965.27 4056.63L2979.56 4047.6H3000.62L3020.18 4040.07L3039.74 4034.81L3045.76 4021.26V4007.72L3039.74 3998.69L3025.45 3967.84L3029.21 3953.54C3040.5 3943.76 3063.82 3924.2 3066.83 3924.2C3069.84 3924.2 3077.11 3924.2 3080.37 3924.2C3081.87 3923.19 3085.33 3920.58 3087.14 3918.18C3088.95 3915.77 3090.4 3912.66 3090.9 3911.4C3093.91 3909.9 3101.28 3906.89 3106.7 3906.89C3112.12 3906.89 3117.98 3906.89 3120.24 3906.89C3124.5 3902.88 3133.48 3894.4 3135.29 3892.59C3137.09 3890.79 3142.56 3884.32 3145.07 3881.31V3867.76V3863.25V3835.41L3161.62 3830.14L3235.34 3786.5L3241.36 3781.98C3242.62 3778.47 3245.58 3770.85 3247.38 3768.44C3249.19 3766.03 3256.66 3753.89 3260.17 3748.12L3275.22 3739.09L3298.54 3721.03C3300.29 3716.27 3303.8 3705.83 3303.8 3702.22C3303.8 3697.71 3303.8 3687.17 3303.8 3683.41C3303.8 3680.4 3307.82 3676.64 3309.82 3675.13L3319.6 3666.1L3329.38 3655.57L3334.65 3630.74V3619.45V3608.16L3325.62 3596.12L3319.6 3586.34L3303.8 3570.54L3299.29 3550.22L3303.8 3544.21L3329.38 3533.67L3325.62 3524.64C3325.62 3521.63 3325.62 3515.01 3325.62 3512.6C3325.62 3510.19 3325.62 3501.06 3325.62 3496.8L3329.38 3482.5L3334.65 3471.22L3339.16 3457.67V3443.38L3329.38 3419.3L3344.43 3398.23H3358.72L3370.01 3385.44H3385.81H3402.36L3408.37 3398.23C3414.14 3400.24 3426.58 3404.25 3430.19 3404.25C3433.8 3404.25 3449.75 3404.25 3457.27 3404.25L3468.56 3410.27L3484.36 3419.3L3502.41 3424.56L3546.05 3414.03L3567.11 3394.47L3575.39 3378.66V3360.61L3567.11 3351.58C3567.11 3344.05 3567.11 3328.25 3567.11 3325.24C3567.11 3322.23 3572.63 3313.45 3575.39 3309.44L3598.71 3301.16L3609.24 3296.65L3615.26 3283.86L3632.56 3268.81L3641.59 3255.26H3632.56V3246.23L3628.05 3225.92ZM3628.05 3225.92L3641.59 3207.86H3652.12L3658.89 3214.63L3664.16 3207.86V3203.34" stroke="black" stroke-width="10"/>
</svg>
