<svg width="7820" height="5531" viewBox="0 0 7820 5531" fill="none" xmlns="http://www.w3.org/2000/svg">
<path d="M5685.41 4499.08L5738.89 4522.75L5741.52 4515.74V4503.47L5745.02 4489.44H5758.17L5772.2 4499.08L5781.84 4522.75L5776.58 4554.31L5800.25 4578.86L5817.78 4666.52L5809.89 4679.67L5794.11 4715.61H5781.84L5759.05 4698.96L5738.89 4695.45L5708.21 4742.79L5695.06 4738.4L5019.17 4453.5L4578.23 4201.91L4295.08 4027.46L4221.44 3857.39L4373.1 3675.05V3546.19L4397.64 3460.28L4416.93 3464.66H4437.97L4447.61 3482.19H4460.76L4516.87 3514.63L4547.55 3519.89L4587 3553.2H4607.16L4623.82 3563.72L4629.07 3622.45L4668.52 3708.36L4694.82 3717.13L4742.16 3750.44L4817.55 3754.83L4853.49 3743.43L4876.28 3746.94L4879.79 3783.75V3765.35L4895.57 3760.96H4913.1L4930.64 3783.75L4949.04 3788.14L4978.85 3830.22L5011.29 3840.74L5047.23 3846.87L5077.91 3878.43L5107.71 3905.61L5077.91 3931.03L5070.9 3966.09L5081.42 3973.98L5085.8 4009.92L5116.48 4038.85L5123.49 4079.18L5152.42 4099.34L5157.68 4134.41L5123.49 4130.9V4139.67L5168.2 4168.59L5144.53 4205.41L5105.08 4215.93C5102.16 4226.74 5096.32 4248.19 5096.32 4247.49C5096.32 4246.79 5096.32 4295.71 5096.32 4320.25L5148.92 4373.73L5141.03 4399.15L5155.93 4414.93H5176.09L5254.99 4438.6L5262.88 4456.13L5273.4 4516.62M5685.41 4499.08L5657.36 4471.91L5636.32 4447.36L5620.54 4443.86L5600.38 4418.43L5529.37 4400.02L5521.48 4338.66L5496.06 4307.1L5499.57 4296.58C5503.95 4297.46 5513.59 4299.21 5517.1 4299.21C5520.61 4299.21 5536.68 4299.21 5544.28 4299.21L5564.44 4288.69L5569.7 4267.65L5564.44 4247.49L5503.07 4219.44H5485.54L5481.16 4213.3L5485.54 4196.65L5473.27 4184.37L5460.12 4172.98L5447.85 4167.72L5418.04 4188.76H5402.26L5392.62 4179.11L5384.73 4167.72L5370.7 4165.09L5344.4 4179.11C5340.61 4177.07 5332.13 4172.45 5328.62 4170.35C5325.12 4168.24 5314.31 4156.61 5309.34 4151.06L5290.93 4158.95C5280.99 4161 5260.77 4165.09 5259.37 4165.09C5257.97 4165.09 5230.73 4186.13 5217.29 4196.65V4254.5L5206.77 4279.05L5209.4 4360.58L5260.25 4392.14H5269.89L5273.4 4464.02L5283.92 4486.81L5279.53 4497.33L5273.4 4516.62M5685.41 4499.08V4474.54L5683.66 4435.97L5620.54 4367.59L5645.96 4341.29V4332.52L5624.05 4321.13L5620.54 4264.15L5617.04 4222.07L5574.96 4199.28L5527.62 4196.65L5503.07 4176.48L5517.1 4144.93L5534.63 4123.01V4110.74L5517.1 4108.11H5508.33L5503.07 4104.6L5496.06 4110.74L5503.07 4123.01L5493.43 4131.78H5473.27L5464.5 4119.5L5447.85 4116L5437.33 4101.97L5425.49 4087.94M5273.4 4516.62L5290.93 4559.57M5426.81 4085.32L5425.49 4087.94M5546.03 4008.17L5521.48 4013.43L5501.32 4024.83L5478.53 4039.73H5468.89L5455.74 4033.59L5442.59 4030.09L5424.18 4037.1L5422.42 4067.78L5415.41 4070.41H5402.26L5387.36 4080.93L5392.62 4091.45L5402.26 4099.34L5422.42 4101.97V4094.08L5425.49 4087.94M5546.03 4008.17L5558.3 4009.92M5546.03 4008.17L5527.62 3982.75C5527.04 3978.95 5525.87 3971 5525.87 3969.6C5525.87 3968.2 5524.7 3953.24 5524.11 3945.93L5527.62 3854.76L5532.88 3748.69L5558.3 3696.97V3661.03L5567.07 3644.37L5553.92 3603.17V3579.5L5562.68 3543.56L5591.61 3524.27L5610.9 3529.53L5625.8 3543.56L5641.58 3538.3L5659.11 3529.53H5675.77L5696.81 3524.27L5675.77 3485.7L5617.91 3424.34L5596 3405.05L5558.3 3379.63L5553.92 3355.96L5522.36 3340.18L5534.63 3309.5L5610.9 3197.29L5677.52 3041.25L5704.7 3059.66H5718.72L5726.61 3041.25H5760.8C5767.82 3046.22 5782.19 3056.33 5783.6 3057.03C5785 3057.73 5838.53 3069.59 5865.12 3075.44C5867.17 3079.82 5871.43 3088.94 5872.13 3090.34C5872.84 3091.74 5861.91 3117.81 5856.36 3130.67L5891.42 3150.83L5901.06 3165.73L5891.42 3179.76L5896.68 3187.65L5912.46 3179.76L5917.72 3160.47L5964.18 3122.78L5953.66 3094.72L5981.71 3087.71L6012.4 3084.2L6030.8 3099.98V3110.5L6025.54 3122.78L6043.08 3135.93C6047.75 3138.85 6057.28 3144.87 6057.98 3145.57C6058.68 3146.27 6062.95 3155.8 6064.99 3160.47C6066.75 3167.78 6070.6 3182.56 6072.01 3183.26C6073.41 3183.97 6086.62 3188.82 6093.05 3191.15L6094.8 3202.55L6128.11 3204.3L6146.52 3234.11L6174.57 3218.33L6166.68 3189.4L6174.57 3173.62L6204.38 3162.22L6241.2 3160.47L6258.73 3171.87L6327.98 3208.69L6323.6 3229.73L6305.19 3234.11H6288.53L6290.29 3248.13L6294.67 3256.02L6312.2 3273.56L6305.19 3285.83L6297.3 3298.1L6292.92 3306.87L6303.44 3317.39L6313.96 3321.77L6337.62 3323.52L6382.33 3311.25L6415.64 3314.76L6434.93 3334.92L6467.37 3321.77L6509.44 3311.25C6519.38 3315.63 6539.6 3324.75 6541 3326.15C6542.41 3327.56 6546.85 3341.35 6548.89 3348.07H6573.44L6591.85 3333.17L6604.12 3326.15L6622.53 3353.33L6617.27 3370.86V3382.26L6626.91 3387.52L6609.38 3425.21L6605.87 3436.61L6560.29 3497.1L6555.91 3573.36L6526.1 3611.94L6493.66 3620.7L6485.77 3633.85V3659.27L6455.09 3668.92H6424.41L6410.38 3640.86L6372.69 3629.47L6356.03 3624.21L6286.78 3674.18L6251.71 3727.65C6254.05 3734.66 6258.38 3749.04 6256.97 3750.44C6255.57 3751.85 6240.03 3807.13 6232.43 3834.6H6185.09L6154.41 3853.01L6127.23 3904.73C6128.11 3912.91 6130.39 3929.63 6132.49 3931.03C6134.6 3932.43 6147.98 3937.46 6154.41 3939.79L6150.03 3962.59L6136 3977.49L6106.19 3968.72L6086.03 3962.59L6073.76 3977.49L6053.6 3989.76L6011.52 3982.75L6053.6 4126.52L6090.42 4144.05L6106.19 4161.58V4197.52L6114.96 4221.19L6137.75 4242.23L6148.27 4259.76C6148.27 4261.52 6148.27 4265.73 6148.27 4268.53C6148.27 4271.34 6155.29 4292.49 6158.79 4302.72L6170.19 4313.24H6195.61L6279.77 4381.62L6308.7 4449.99L6336.75 4474.54L6352.53 4502.59L6363.92 4533.27L6360.42 4550.81L6316.59 4578.86L6265.74 4560.45L6229.8 4533.27L6207.88 4543.79L6202.62 4560.45L6214.02 4578.86L6218.4 4591.13L6202.62 4605.16H6180.71L6159.67 4599.02L6150.03 4605.16L6144.77 4624.44L6121.1 4642.85L6102.69 4659.51L6092.17 4667.4L6032.56 4677.92L6025.54 4729.64L6007.14 4737.53L5988.73 4729.64L5977.33 4720.87L5974.7 4675.29L5932.62 4663.01L5912.46 4667.4L5895.8 4679.67L5905.45 4698.96V4720.87V4729.64H5887.04L5872.13 4737.53L5851.1 4747.17L5836.19 4751.55L5823.04 4737.53L5851.1 4666.52L5845.84 4628.83L5809.89 4571.84L5804.63 4515.74L5786.23 4489.44L5790.61 4412.3L5809.89 4386.88L5814.28 4376.36L5809.89 4355.32L5800.25 4332.52L5787.98 4335.15L5790.61 4359.7L5787.98 4379.86L5781.84 4393.01L5776.58 4405.28H5761.68L5758.17 4386.88V4351.81L5748.53 4355.32L5743.27 4373.73L5748.53 4386.88L5745.02 4405.28V4412.3L5725.74 4414.93L5716.09 4409.67L5708.21 4397.39L5702.95 4402.65V4420.19C5704.7 4422.82 5708.21 4428.6 5708.21 4430.71C5708.21 4433.34 5725.74 4464.9 5730.12 4466.65C5734.5 4468.4 5743.27 4474.54 5743.27 4478.04C5743.27 4480.85 5738.59 4489.15 5736.26 4492.95L5730.12 4508.73M6616.39 3497.1L6656.72 3509.37L6683.02 3521.64L6692.66 3542.68L6696.17 3564.6L6683.02 3567.23L6666.36 3542.68L6654.09 3526.9C6647.95 3526.03 6634.8 3524.8 6631.3 3526.9C6627.79 3529.01 6608.21 3533.04 6598.86 3534.79L6586.59 3550.57L6576.94 3573.36L6571.68 3609.31C6565.55 3616.03 6553.28 3629.82 6553.28 3631.22C6553.28 3632.62 6578.41 3649.34 6590.97 3657.52L6618.15 3663.66L6646.2 3670.67L6658.47 3666.29L6660.22 3653.14L6666.36 3647L6685.65 3657.52C6692.07 3660.44 6705.28 3666.29 6706.69 3666.29C6708.09 3666.29 6737.66 3657.52 6752.27 3653.14L6768.93 3657.52L6809.25 3670.67H6845.19L6860.1 3657.52L6865.36 3635.6L6855.71 3623.33L6841.69 3618.95L6802.24 3547.06V3538.3L6816.26 3533.92V3524.27L6809.25 3515.51L6813.63 3505.86L6826.78 3503.23L6841.69 3494.47L6833.8 3479.56L6826.78 3469.92V3445.38H6805.74L6796.1 3448.01L6788.21 3439.24V3425.21C6785.29 3421.71 6779.09 3414.87 6777.69 3415.57C6776.29 3416.27 6763.08 3415.86 6756.65 3415.57H6751.39L6729.48 3397.16L6719.83 3378.75L6703.18 3385.77L6692.66 3405.05L6696.17 3415.57L6692.66 3421.71L6663.73 3430.47L6641.81 3439.24V3458.53V3469.92C6635.68 3471.38 6622 3474.48 6616.39 3475.18C6610.78 3475.88 6609.38 3483.66 6609.38 3487.45L6616.39 3497.1Z" stroke="black" stroke-width="10"/>
</svg>
