<svg width="7820" height="5531" viewBox="0 0 7820 5531" fill="none" xmlns="http://www.w3.org/2000/svg">
<path d="M3499.98 4231.71C3446.21 4265.61 3337.45 4333.75 3332.54 4335.15V4341.29L4167.09 4827.82L4223.2 4857.63L4250.37 4886.55L4393.26 4954.93L4399.4 4951.42L4414.3 4917.24L4434.46 4900.58L4430.96 4886.55L4476.54 4826.07L4541.41 4681.42L4573.85 4655.12L4597.52 4650.74L4634.33 4618.31L4658 4614.8L4686.06 4580.61L4726.38 4556.94L4760.57 4577.1L4831.58 4582.36L4907.84 4562.2L5003.39 4578.86L5117.36 4653.37L5197.13 4657.75L5219.05 4671.78H5242.71L5256.74 4680.55H5286.55L5309.34 4698.96L5360.18 4686.68L5395.25 4713.86L5457.49 4710.35L5470.64 4719.12L5524.11 4720.87L5561.81 4742.79L5714.34 4741.03V4732.27L5007.78 4433.34L4921.87 4384.25L4871.02 4346.55L4613.29 4208.92L4554.56 4165.09L4304.72 4016.94L4238.97 3846.87L3649.88 4159.83L3499.98 4231.71Z" stroke="black" stroke-width="10"/>
</svg>
