<svg width="7820" height="5531" viewBox="0 0 7820 5531" fill="none" xmlns="http://www.w3.org/2000/svg">
<path d="M1475.84 1134.58L1450.42 1085.49L1448.66 979.419L1490.74 860.197L1590.68 793.573L2015.84 739.222L2221.85 733.086L2271.82 839.158L2295.49 846.171L2370 937.34L2374.38 963.639L2431.37 1002.21V1019.74L2455.91 1103.02L2519.91 1135.46L2559.35 1175.78L2634.74 1185.43L2656.66 1209.1L2677.7 1211.73L2734.68 1259.06L2767.99 1246.79L2821.47 1252.05L2860.91 1284.49L2943.32 1288.87L2980.14 1312.54L3006.43 1306.4L3029.23 1312.54L3081.82 1328.32L3132.67 1318.67L3158.97 1324.81L3215.07 1320.43L3248.38 1344.97C3251.6 1362.8 3258.2 1399.5 3258.9 1403.71C3259.6 1407.91 3298.35 1444.03 3317.64 1461.56V1501.01L3341.31 1538.71V1563.25L3370.24 1632.51L3485.95 1690.36L3528.9 1730.69L3536.79 1823.61L3566.6 1856.05V1925.3L3586.76 1977.02L3367.61 2001.57L3153.71 2018.22L2958.22 2072.57L2786.4 2164.62L2771.5 2169.88L2228.86 2354.85L2204.32 2360.99L2154.35 2390.79H2123.67L1983.41 2440.76L1954.48 2431.12L2060.55 2013.84L1965 1725.43L1855.42 1604.46L1783.54 1569.39L1591.56 1417.73L1552.98 1374.78L1486.36 1233.64L1475.84 1134.58Z" stroke="black" stroke-width="10"/>
</svg>
