<svg width="7820" height="5531" viewBox="0 0 7820 5531" fill="none" xmlns="http://www.w3.org/2000/svg">
<path d="M3392.15 4123.89L3330.79 4334.28L3338.68 4345.67L3504.36 4245.74L4236.34 3867.91L4393.26 3678.56L4387.12 3550.57L4408.16 3463.79L4387.12 3454.14L4359.07 3411.19L4216.18 3398.91L4188.13 3417.32H4153.94L4115.37 3346.32L4103.1 3317.39V3276.19L4093.45 3234.11L4041.73 3216.58H3919.88H3868.16C3830.17 3212.19 3752.8 3203.25 3747.19 3202.55C3741.57 3201.85 3691.08 3236.74 3666.54 3254.27L3628.84 3296.35V3366.48L3599.91 3408.56V3476.06L3543.81 3573.36L3559.59 3657.52L3530.66 3712.75L3500.85 3808.3L3493.84 3838.11L3474.55 3853.89L3392.15 4123.89Z" stroke="black" stroke-width="10"/>
<path d="M5460.12 3213.07L5458.37 3202.55L5397.88 3168.36L5394.37 3141.19L5462.75 3073.69L5443.46 3042.13L5462.75 3022.84L5483.79 3020.21L5501.32 3006.18L5534.63 3020.21V3006.18L5555.67 2995.67L5575.83 2999.17L5597.75 2989.53L5618.79 2999.17L5648.59 3002.68L5657.36 3022.84L5685.41 3057.91L5632.81 3199.04L5533.76 3340.18L5523.24 3333.17L5512.72 3320.89L5439.08 3294.6L5411.03 3265.67L5408.4 3242L5411.03 3225.34L5460.12 3213.07Z" stroke="black" stroke-width="10"/>
</svg>
