<svg width="7820" height="5531" viewBox="0 0 7820 5531" fill="none" xmlns="http://www.w3.org/2000/svg">
<path d="M2045.65 2951.83L2051.79 2976.38H2081.59L2114.9 2951.83L2149.09 2986.9L2171.88 2972.87L2235 3016.7L2306.88 3006.18L2412.96 3078.07L2560.23 3069.3L2599.68 3098.23L2633.87 3163.98L2662.8 3172.74L2686.46 3218.33L2719.78 3231.48L2745.2 3257.78H2760.1L2833.74 3284.08L2902.12 3238.49H2928.41L3108.12 3124.53L3611.31 2794.04L3706.86 2746.7L3790.14 2670.44L3869.91 2640.63L3895.34 2618.71L3884.82 2604.69L3876.93 2595.92L3860.27 2602.06V2593.29L3887.45 2537.19V2505.63L3869.91 2502.12L3849.75 2487.22V2470.56L3815.56 2454.79V2424.98L3784.88 2403.06L3788.39 2367.12L3773.48 2353.97L3736.67 2282.09V2255.79L3718.26 2225.98L3721.76 2222.48L3732.28 2211.08V2198.81L3720.01 2185.66L3706.86 2204.95L3614.81 2295.24L3674.43 2224.23L3732.28 2156.73L3659.52 2088.35L3654.26 2066.44L3595.53 2005.95L3586.76 1967.38L3144.94 2007.7L2947.7 2061.18L2764.48 2154.98L2191.17 2350.47L2156.1 2375.01H2125.42L1982.53 2423.23L1877.34 2746.7L1908.02 2850.14L1936.07 2861.54L1931.69 2872.06V2919.4L1976.4 2942.19H2021.1L2045.65 2951.83Z" stroke="black" stroke-width="10"/>
</svg>
