<svg width="7820" height="5531" viewBox="0 0 7820 5531" fill="none" xmlns="http://www.w3.org/2000/svg">
<path d="M2689.09 3667.16L2203.44 3515.51L2021.1 3024.59L2034.25 3010.57L2029.87 3002.68V2988.65L2036.88 2967.61L2050.91 2963.23L2085.1 2959.72L2122.79 2942.19L2153.47 2967.61L2175.39 2957.09L2231.49 2996.54H2313.02L2416.46 3063.17L2574.26 3059.66L2616.33 3092.97L2642.63 3154.34L2677.7 3165.73L2704.87 3213.95L2722.41 3218.33L2750.46 3240.24L2829.35 3268.3L2893.35 3231.48L2932.8 3213.95L3127.41 3094.72L3619.2 2768.62L3691.08 2738.81L3785.76 2654.66L3852.38 2632.74L3883.06 2605.57H3897.09L3908.48 2630.11V2681.83L3903.22 2697.61L3905.85 2703.75L3903.22 2716.02V2756.35L3917.25 2769.49L3932.15 2797.55L3975.11 2829.11L3998.78 2808.94L4024.2 2835.24L4025.95 2871.18L4052.25 2900.11L4041.73 2935.18L4054.88 2955.34L4059.26 3015.83L4084.69 3055.28V3152.58L4097.84 3196.41L4091.7 3248.13L4026.83 3227.97L3755.07 3219.21L3671.79 3263.91L3643.74 3307.75L3638.48 3368.23L3608.68 3423.46V3487.45L3556.08 3580.38L3570.11 3666.29L3541.18 3722.39L3508.74 3819.7V3851.26L3487.7 3861.77L3342.18 4350.93L2803.93 3746.06L2742.57 3732.91L2689.09 3667.16Z" stroke="black" stroke-width="10"/>
<path d="M5407.52 3021.09L5434.7 2980.76L5427.68 2963.23L5408.4 2956.22L5418.92 2945.7L5439.96 2929.92V2906.25V2888.72L5474.15 2872.94L5502.2 2891.35L5518.85 2888.72L5532.88 2879.07V2862.42L5518.85 2852.77L5505.7 2838.75V2827.35L5528.5 2831.74L5553.92 2827.35L5573.2 2816.83L5581.09 2797.55H5553.92L5532.88 2773L5513.59 2757.22L5490.8 2773L5456.61 2740.57L5449.6 2762.48H5427.68L5418.92 2778.26L5408.4 2812.45L5392.62 2821.22H5375.96L5341.77 2808.94L5336.51 2786.15L5314.6 2773L5283.04 2778.26L5266.38 2793.16H5251.48L5255.86 2778.26L5251.48 2762.48L5271.64 2747.58L5266.38 2728.29L5251.48 2715.14L5226.06 2723.91L5199.76 2728.29L5195.38 2709.01L5185.73 2687.09L5219.05 2668.68L5226.06 2652.9L5199.76 2648.52L5185.73 2635.37V2594.17L5152.42 2588.91L5125.25 2552.09H5079.66L5062.13 2539.82L5053.36 2536.31V2518.78L5041.97 2508.26L5009.53 2500.37L4993.75 2484.59L4997.26 2472.32L4970.08 2454.79L4942.03 2449.53C4934.43 2454.79 4918.19 2465.3 4913.98 2465.3C4909.77 2465.3 4905.8 2454.79 4904.34 2449.53L4875.41 2445.14L4829.82 2481.08H4798.26H4778.98H4758.82L4754.43 2472.32L4778.98 2465.3L4771.97 2449.53C4776.35 2446.31 4785.11 2439.53 4785.11 2438.13C4785.11 2436.73 4793.88 2431.7 4798.26 2429.36L4796.51 2411.83L4785.11 2390.79L4763.2 2411.83H4740.41L4677.29 2368L4603.65 2345.21C4589.33 2354.85 4559.65 2374.14 4555.44 2374.14H4511.61L4494.95 2353.97L4473.03 2329.43L4448.49 2315.4L4454.63 2304.01L4448.49 2290.86L4428.33 2276.83L4396.77 2281.21L4382.74 2320.66L4396.77 2349.59L4421.31 2390.79L4466.02 2432.87L4481.8 2481.08L4532.65 2531.93L4569.46 2581.9L4654.5 2627.48L4675.54 2648.52L4745.67 2672.19L4775.47 2729.17L4820.18 2786.15L4832.45 2819.46L4867.52 2858.91L4879.79 2884.33L4921.87 2888.72L4963.07 2930.79L4971.84 2952.71L5003.4 2965.86L5015.67 2985.15L5078.79 3005.31L5103.33 3025.47L5153.3 3052.65L5191.87 3035.99L5226.94 3079.82L5262 3121.9L5285.67 3133.3L5313.72 3156.09L5354.92 3146.45L5364.57 3106.12L5418.04 3052.65L5407.52 3021.09Z" stroke="black" stroke-width="10"/>
</svg>
