<svg width="7820" height="5531" viewBox="0 0 7820 5531" fill="none" xmlns="http://www.w3.org/2000/svg">
<path d="M3611.78 1969.66L3629.54 1991.37V1998.61L3591.39 2034.13L3551.91 2144L3533.49 2179.52L3509.15 2244.65L3424.95 2359.12L3394.03 2415.69L3313.77 2523.58L3210.48 2636.74L2987.47 2784.1L2909.84 2824.23L2781.55 2901.86L2655.9 2988.04L2569.72 3052.51L2493.41 3116.98L2420.39 3184.74L2381.57 3215L2354.6 3235.39L2325 3257.76L2320.39 3266.31L2247.37 3330.78L2182.24 3384.73L2166.45 3391.97L2053.96 3481.43V3493.28L1991.46 3538.67L1955.28 3561.04L1931.59 3578.8L1912.52 3589.98L1894.75 3599.19L1880.28 3605.11V3583.4L1882.91 3567.61L1876.33 3551.17V3500.51V3472.22L1859.89 3433.41L1853.31 3405.78C1852.43 3401.83 1850.54 3393.15 1850.02 3389.99C1849.49 3386.83 1847.61 3376.83 1846.73 3372.23L1837.52 3355.78L1857.25 3328.15L1878.96 3321.57L1894.1 3314.34L1901.33 3301.84L1915.8 3299.86L1925.67 3290.65L1943.43 3283.42L1949.36 3268.29L1969.75 3263.02C1980.93 3246.14 2003.7 3212.37 2005.27 3212.37H2017.12L2022.38 3205.13L2043.43 3189.34L2065.14 3144.61V3131.45L2055.27 3117.64L2039.48 3111.06L2029.62 3099.22L2025.01 3078.82C2023.26 3076.63 2019.75 3071.85 2019.75 3070.27C2019.75 3068.69 2015.8 3063.47 2013.83 3061.06L2009.88 3049.88L2006.59 3043.95V3038.03C2006.59 3036.46 2003.96 3032.11 2002.64 3030.14L2001.33 3016.32L1994.09 2997.9C1996.06 2995.71 2000.27 2991.06 2001.33 2990.01C2002.38 2988.96 2005.27 2983.43 2006.59 2980.8V2963.04V2955.14L2002.64 2944.62L2013.83 2942.64H2019.75L2031.59 2944.62L2037.51 2942.64V2935.41V2925.54L2047.38 2919.62V2913.04L2051.98 2903.83L2061.85 2893.3L2073.69 2895.28L2088.17 2899.88L2100.66 2893.3L2128.29 2890.67L2132.9 2895.28L2135.53 2906.46L2140.79 2919.62L2148.69 2925.54L2156.58 2923.57L2176.32 2921.59L2191.45 2913.04L2214.48 2890.67L2231.58 2852.52L2234.21 2838.04V2831.46L2230.26 2828.83L2226.32 2824.23L2223.03 2821.6H2213.16L2211.19 2812.39L2206.58 2807.12L2186.84 2766.34L2163.16 2748.57L2136.85 2710.42L2119.08 2662.39L2102.64 2613.05L2098.03 2595.95L2083.56 2583.45L2051.98 2542.66L2048.04 2524.9L2019.09 2502.53L1998.7 2457.8L1969.09 2424.25L1951.33 2385.43L1938.83 2369.64L1905.94 2315.04L1886.86 2298.59L1872.39 2278.86L1855.28 2260.44L1827.65 2247.28L1776.34 2245.31L1769.1 2241.36L1764.5 2231.49L1728.97 2211.1L1719.76 2204.52L1714.5 2193.99L1728.97 2180.84L1714.5 2167.68V2156.5L1725.02 2149.26L1740.15 2146.63L1744.1 2136.76L1784.89 2104.52L1795.42 2098.6L1868.44 2076.24L1891.46 2070.32L1909.88 2059.79L1946.72 2051.24L1958.57 2042.03L1965.8 2014.4L1990.8 1999.92L2011.85 1977.56L2034.22 1982.82L2062.51 1980.85L2107.9 1955.19L2157.24 1916.38L2219.74 1876.25L2300.66 1831.51L2340.13 1806.51L2407.89 1749.94L2446.7 1726.25L2474.99 1706.52L2508.54 1765.72L2540.12 1802.56L2569.06 1824.27L2599.33 1836.12L2627.61 1832.83L2728.93 1796.64L2734.85 1779.54L2780.9 1733.49L2784.19 1703.88L2799.32 1676.91L2807.87 1665.73L2798 1651.91L2802.61 1637.44L2805.24 1604.55V1552.58L2780.9 1509.16L2767.08 1500.6L2773 1491.39L2798 1481.53L2809.84 1483.5L2818.39 1488.11H2826.95C2828.92 1475.39 2832.87 1449.69 2832.87 1448.63V1413.77L2838.79 1404.56H2845.37L2853.26 1409.82L2874.31 1417.71H2913.78L2917.73 1420.35L2951.28 1476.92L2961.15 1485.47C2965.1 1490.08 2973.26 1499.55 2974.31 1500.6C2975.36 1501.66 2984.4 1504.11 2988.78 1505.21L3000.62 1508.5L3003.25 1515.08L3009.18 1516.39L3018.39 1522.31L3031.54 1540.08L3045.36 1542.05L3066.41 1536.13L3107.85 1533.5L3134.17 1540.08L3171.01 1565.73H3176.27H3233.51L3259.82 1582.84L3269.03 1584.15L3310.48 1585.47L3324.29 1591.39L3332.19 1596.65L3380.21 1656.52L3418.37 1686.12L3422.97 1697.96L3492.05 1738.09L3501.92 1755.86L3521.65 1765.72L3525.6 1770.99L3539.41 1799.93L3553.23 1811.12L3565.73 1836.12V1862.43L3557.83 1882.82L3584.81 1928.22L3582.18 1949.27L3597.31 1968.35L3611.78 1969.66Z" stroke="black" stroke-width="10"/>
</svg>
