<svg width="7820" height="5531" viewBox="0 0 7820 5531" fill="none" xmlns="http://www.w3.org/2000/svg">
<path d="M2058.56 4576.78H2040.8L2036.19 4576.12L2032.9 4570.2V4564.28L2035.54 4556.39L2030.93 4549.15L2030.27 4539.28L2021.72 4526.12L2013.17 4519.54L2011.2 4511.65L1997.38 4475.47L1992.12 4470.2L1982.25 4466.26L1979.62 4458.36L1976.99 4455.73L1969.09 4449.81L1967.78 4443.23L1985.54 4416.92V4404.42C1985.98 4400.03 1986.85 4391.13 1986.85 4390.6V4377.45L1982.91 4365.6L1978.3 4345.21L1956.59 4324.82L1945.41 4312.32V4301.79L1941.46 4291.92L1934.23 4283.37L1929.62 4275.48L1912.52 4268.24L1896.07 4260.35C1891.46 4258.81 1881.86 4255.74 1880.28 4255.74C1878.7 4255.74 1872.17 4258.81 1869.1 4260.35L1864.49 4268.24V4278.11L1855.94 4283.37L1828.97 4289.29L1816.47 4278.11L1811.86 4275.48V4280.08L1816.47 4291.92H1811.86H1805.94L1799.36 4289.29L1782.92 4283.37L1779.63 4278.11V4262.98L1785.55 4255.74L1799.36 4251.14H1782.92L1766.47 4247.85V4226.79L1779.63 4219.56L1799.36 4207.06H1819.1L1882.25 4137.98L1886.86 4116.27L1901.33 4106.41L1907.25 4057.72L1916.46 4025.49V3948.52V3932.73L1898.04 3891.94V3857.73L1893.44 3845.89L1890.81 3822.21L1875.02 3794.58L1846.73 3772.87L1840.81 3739.32L1854.62 3715.63L1861.86 3685.37V3666.29L1875.02 3630.77L1876.99 3608.4V3593.27L1882.25 3588.67L1894.1 3584.06L1905.28 3580.11L1921.73 3570.25L1944.75 3555.77L2013.83 3505.78L2038.83 3489.33L2040.8 3479.46L2062.51 3459.73L2166.45 3378.81L2182.24 3370.26L2279.6 3283.42L2308.55 3263.02L2312.5 3251.84L2354.6 3217.63L2373.68 3207.11L2467.1 3121.58L2617.09 2997.25L2740.77 2913.7L2914.44 2803.83L2959.84 2785.41L3198.64 2631.47L3274.3 2547.92L3332.19 2474.9L3378.9 2411.75L3411.79 2351.88L3497.31 2240.7L3516.39 2181.49L3532.84 2154.52L3579.54 2028.87L3587.44 2017.69L3649.94 1971.64L3680.2 1955.19L3707.17 1944.66L3720.98 1953.87L3740.06 1965.06L3759.14 1971.64L3795.98 1986.11L3833.48 2005.84L3842.03 2024.26H3845.32L3855.85 2028.21L3885.45 2040.71L3899.27 2045.32H3958.47H3974.26H3985.45L3996.63 2037.42H4032.81L4044.65 2042.03H4060.44L4066.36 2037.42H4083.47L4105.18 2022.29L4109.78 2026.24L4121.62 2030.84L4138.73 2033.47L4148.6 2026.24H4161.1L4174.25 2033.47L4184.12 2026.24L4197.94 2029.53L4221.62 2041.37L4246.62 2045.97L4297.27 2030.84L4321.62 2026.24L4362.4 1986.77L4377.53 1947.29L4449.9 1888.09L4456.48 1875.59L4463.06 1842.04L4470.29 1838.75H4484.11L4508.45 1830.19L4561.74 1760.46V1724.94L4597.92 1670.33L4603.84 1657.83L4657.78 1561.79L4803.17 1332.85L4824.22 1299.96L4836.07 1272.98L4968.95 1636.78L4978.82 1662.44L4903.17 1694.67V1703.23L4898.56 1705.86L4566.34 1920.32L4493.98 1986.77L4399.24 2070.32L4389.38 2088.08L4322.93 2140.05V2155.18L4282.14 2188.73L4268.33 2191.36L4159.78 2290.7L4132.81 2332.8L4084.13 2374.25L4072.28 2395.3L4032.81 2422.27L3978.87 2472.27L3957.82 2488.72L3928.87 2503.19L3876.24 2538.06L3805.19 2584.11L3756.51 2605.16H3730.85L3724.93 2603.84L3718.35 2601.21L3715.06 2595.95V2586.74L3722.96 2580.16L3727.56 2572.92L3730.85 2567L3729.54 2559.11L3724.93 2555.16H3715.06L3708.49 2561.74L3710.46 2589.37L3688.75 2633.45L3584.15 2694.63L3553.23 2725.55L3542.05 2750.55L3545.99 2769.63L3567.04 2816.33L3558.49 2841.99L3544.68 2850.54L3532.18 2858.44L3525.6 2866.99L3532.18 2875.54L3550.6 2882.78L3561.12 2891.99L3553.89 2907.78L3544.68 2917.64L3550.6 2926.85L3553.89 2938.04L3539.41 2955.14H3523.63L3514.42 2958.43V2977.51L3495.34 2996.59C3492.49 2995.05 3486.13 2991.59 3483.5 2990.01C3480.86 2988.43 3477.14 2983.21 3475.6 2980.8L3470.34 2965.67L3465.08 2955.14L3448.63 2948.56L3417.71 3061.72L3404.55 3140L3379.55 3266.97L3145.35 3391.31H3117.07L3053.25 3474.2V3489.99L3043.38 3497.88L2984.18 3582.09L2931.55 3661.03L2919.71 3678.79L2898.65 3726.16L2882.21 3732.08L2807.21 3817.6L2693.4 3966.28L2580.25 4114.3L2524.33 4186.01L2469.73 4254.43L2430.25 4283.37L2390.13 4311L2382.89 4336.66L2376.97 4351.79L2370.39 4358.37L2340.13 4362.97L2324.34 4389.95L2318.42 4393.23L2309.87 4399.16L2302.63 4405.73L2301.31 4412.31L2309.87 4420.21L2318.42 4427.44L2326.31 4429.42V4439.94L2315.79 4443.89H2293.42H2279.6L2253.95 4437.31L2249.34 4443.89L2242.76 4449.15V4470.2V4479.42L2233.55 4482.05H2223.69H2210.53L2203.95 4484.68L2200 4491.26V4497.18L2191.45 4501.12L2181.58 4499.15L2177.64 4494.55L2176.32 4488.62L2177.64 4482.05L2176.32 4476.78L2172.37 4475.47L2168.42 4479.42L2165.14 4488.62L2168.42 4501.12L2162.5 4509.68L2148.03 4519.54L2142.77 4534.68L2152.64 4548.49L2146.06 4555.07L2111.19 4573.49L2094.74 4570.86L2077.64 4567.57L2072.38 4573.49L2058.56 4576.78Z" stroke="black" stroke-width="10"/>
</svg>
