<svg width="7820" height="5531" viewBox="0 0 7820 5531" fill="none" xmlns="http://www.w3.org/2000/svg">
<path d="M3959.13 4771.51L3958.47 4785.98L3910.45 4809L3867.69 4818.87L3865.06 4828.08L3848.61 4845.19L3788.74 4904.4V4919.53V4927.42L3778.22 4940.58L3756.51 4935.97L3726.91 4911.63L3715.06 4901.11L3691.38 4895.19L3684.14 4884.66L3677.57 4878.74C3673.62 4877.42 3665.46 4874.53 3664.41 4873.48C3663.36 4872.42 3660.02 4863.83 3658.49 4859.66L3646.65 4853.74L3590.07 4789.27L3573.62 4771.51L3553.23 4744.53L3547.31 4699.14L3542.05 4680.06L3519.68 4656.38L3513.76 4637.96L3494.68 4595.2L3444.68 4563.62L3432.18 4557.7L3403.89 4544.54L3383.5 4533.36L3369.69 4531.39L3336.79 4533.36L3323.63 4524.15L3304.56 4504.41L3288.77 4482.05L3282.19 4474.15L3276.27 4466.92L3270.35 4461.65L3266.4 4451.13L3261.14 4446.52L3254.56 4444.55L3246.01 4441.26H3234.82L3230.22 4434.02H3224.96L3208.51 4426.79L3194.04 4422.84L3181.54 4426.79V4446.52L3174.3 4444.55L3159.83 4441.26L3149.96 4430.07L3113.12 4401.79L3096.67 4393.89L3081.54 4389.29L3060.49 4376.79L3041.41 4372.18L3008.52 4374.81L2976.94 4389.29L2959.18 4401.79L2943.39 4408.37L2926.94 4422.18L2918.39 4434.02L2917.07 4441.92L2926.28 4460.34L2922.34 4478.76L2899.97 4503.1H2890.1L2878.92 4497.83V4486.65L2881.55 4432.05V4343.24L2883.52 4310.34L2888.79 4209.69V4123.51L2893.39 4044.57V3945.23L2901.29 3939.31L3247.98 3807.08L3309.82 3783.39H3331.53L3336.79 3777.47V3774.18V3763L3334.82 3738.66L3340.08 3736.69L3355.87 3751.16L3374.29 3748.53L3383.5 3763L3377.58 3772.21L3374.29 3787.34L3386.13 3769.58L3389.42 3757.08L3394.03 3738.66L3403.89 3733.4L3419.68 3735.37L3426.92 3747.21L3417.05 3763L3428.89 3754.45H3446.66L3467.05 3755.76L3484.81 3761.03V3756.42L3492.05 3749.84L3505.86 3740.63L3524.28 3738L3530.86 3740.63L3553.23 3761.03L3555.2 3749.84L3559.81 3726.16H3570.33L3578.23 3734.05L3615.07 3749.84V3745.24L3612.44 3740.63L3595.33 3738L3590.73 3732.08L3587.44 3716.95L3605.86 3707.08L3610.46 3693.92L3608.49 3675.5L3610.46 3654.45L3631.52 3639.32H3658.49L3707.17 3640.64L3741.38 3639.32L3746.64 3648.53L3764.4 3667.61L3766.38 3664.98V3649.85L3775.59 3647.22L3780.19 3649.85L3795.98 3655.77L3787.43 3628.14H3792.69H3795.98L3804.53 3635.37L3811.11 3636.69L3820.98 3638.01L3855.85 3628.8V3634.06L3855.19 3666.29L3862.43 3653.14L3871.64 3647.87L3888.08 3653.14L3890.71 3659.72L3892.69 3681.43L3903.21 3692.61L3907.82 3684.06V3676.82L3903.21 3661.69L3907.82 3655.77L3931.5 3649.19L3932.82 3653.14L3931.5 3668.27L3933.48 3674.19L3940.71 3678.79L3948.61 3680.77L3953.21 3686.69L3972.95 3696.56L3994 3711.69L4004.52 3724.19L4003.87 3743.26L4010.45 3749.19L4021.63 3742.61L4038.73 3754.45L4029.52 3764.97L4035.44 3772.87L4057.81 3751.82L4059.79 3755.11V3770.24H4065.71L4073.6 3773.53L4076.23 3788L4061.76 3801.81L4079.52 3799.18L4081.49 3801.81L4086.76 3816.95L4079.52 3832.08L4095.31 3853.13V3866.94L4089.39 3872.21L4084.13 3883.39L4111.1 3903.78L4148.6 3968.25L4143.99 3958.39L4151.89 3954.44L4166.36 3958.39L4169.65 3951.81L4192.67 3945.89H4218.99V3935.36L4223.59 3926.15H4242.67L4261.09 3930.1L4293.33 3951.81L4309.12 3976.15L4311.09 3998.52L4329.51 4003.12L4370.96 4038.65L4386.09 4041.28L4389.38 4045.22L4397.93 4071.54L4415.03 4095.22L4424.24 4110.35L4438.06 4135.35L4449.24 4146.54L4443.32 4197.85L4438.06 4205.09L4422.93 4216.93V4254.43L4407.8 4275.48L4393.32 4280.74L4376.22 4273.5H4360.43L4346.61 4282.06L4313.06 4295.87L4305.83 4303.11L4293.33 4310.34L4286.75 4328.11L4274.25 4332.05L4263.72 4337.97V4342.58V4353.76L4257.14 4364.29L4246.62 4379.42L4241.36 4385.34L4235.43 4391.26V4394.55L4237.41 4398.5L4240.04 4405.08L4241.36 4417.58L4227.54 4433.36H4214.38L4211.75 4436.65V4442.57L4202.54 4449.81L4192.02 4452.44L4180.17 4449.81L4172.94 4452.44L4167.02 4457.71L4162.41 4465.6L4155.18 4474.15L4143.99 4476.78L4128.2 4474.15L4115.7 4472.18L4107.81 4472.84L3958.47 4565.6L3942.69 4574.15L3942.03 4580.73L3942.69 4593.88L3945.32 4603.09V4616.25L3949.26 4629.41V4652.43L3953.21 4659.01V4676.12L3951.9 4691.91L3953.21 4697.17L3956.5 4701.77L3953.87 4714.27V4716.9L3955.84 4722.82V4734.67V4739.27L3959.79 4745.19L3959.13 4771.51Z" stroke="black" stroke-width="10"/>
</svg>
