<svg width="7820" height="5531" viewBox="0 0 7820 5531" fill="none" xmlns="http://www.w3.org/2000/svg">
<path d="M3704.54 1957.82C3678.22 1971.85 3625.2 2000.06 3623.62 2000.58L3619.67 1995.32L3614.41 1990.06L3607.17 1982.82L3596.65 1980.19L3569.02 1954.53L3572.97 1933.48L3545.34 1886.11L3553.89 1859.14V1840.06L3543.36 1821.64L3528.89 1809.8L3513.76 1777.57L3495.34 1766.38L3479.55 1744.67L3411.13 1706.52L3407.84 1693.36L3371 1668.36L3324.29 1605.21L3311.14 1595.34H3256.53L3229.56 1578.89H3167.06L3136.8 1556.52L3129.56 1550.6L3082.2 1547.97L3065.75 1549.94C3060.27 1552.14 3049.17 1556.52 3048.65 1556.52C3048.12 1556.52 3037.46 1555.21 3032.2 1554.55L3022.33 1548.63L3012.46 1532.84L3002.6 1528.89L2994.7 1524.95L2989.44 1516.39L2992.07 1510.47L2994.7 1505.87L2996.02 1497.97L2996.68 1479.55L2992.07 1471L2972.99 1428.9L2971.68 1419.03L2979.57 1408.5L2982.2 1386.14V1376.27L2988.78 1362.45L2997.99 1361.14H3013.12L3013.78 1355.87L3026.94 1346.01L3044.7 1346.66L3062.46 1353.24C3064.44 1355.66 3068.51 1360.48 3069.04 1360.48C3069.57 1360.48 3073.65 1362.23 3075.62 1363.11L3085.49 1359.82L3091.41 1346.01L3140.75 1297.32L3151.93 1293.38L3174.96 1294.69L3183.51 1281.54L3194.04 1268.38L3213.11 1263.77H3225.61L3227.59 1260.48L3229.56 1249.3L3236.14 1242.06L3278.9 1206.54L3313.11 1188.78L3338.11 1190.09L3364.42 1197.99L3375.61 1200.62L3378.9 1196.67L3394.68 1184.17L3433.5 1161.8C3436.79 1157.2 3443.63 1147.86 3444.68 1147.33C3445.73 1146.81 3456.52 1142.29 3461.79 1140.1H3472.31L3484.81 1163.78L3488.76 1169.7L3500.6 1148.65H3515.07H3531.52V1141.41L3534.81 1130.23L3563.1 1113.12L3564.41 1115.75L3574.94 1138.12L3577.57 1148.65L3590.73 1151.28L3603.89 1148.65L3607.83 1142.73L3613.75 1128.91L3622.31 1125.62H3629.54L3644.67 1132.2V1138.78L3642.7 1157.2L3636.78 1186.15H3652.57L3658.49 1176.94H3666.38L3681.51 1188.12L3688.09 1196.67L3701.91 1198.65V1195.36L3692.7 1183.51L3689.41 1173.65V1165.75L3694.67 1159.83L3700.59 1157.2L3713.75 1160.49L3745.33 1176.94L3753.88 1181.54L3763.09 1190.75L3769.01 1201.28L3780.85 1205.22L3784.14 1193.38V1173.65L3780.85 1162.46L3778.88 1149.96L3782.17 1141.41L3788.74 1136.15L3799.93 1132.86L3812.43 1136.81L3822.95 1146.67L3827.56 1173.65L3830.19 1184.17L3830.85 1196.01L3839.4 1213.12L3842.03 1209.17L3854.53 1194.7L3867.03 1177.59L3876.9 1168.38L3894 1169.04L3908.48 1182.2L3940.71 1183.51L3954.53 1186.15L3970.97 1182.2L3973.6 1170.36H3981.5L3997.95 1172.99L4020.31 1150.62L4026.89 1151.94L4038.73 1152.59L4075.57 1134.83L4118.99 1093.39L4139.39 1078.26L4178.2 1034.18L4186.75 1019.71L4193.99 1019.05L4208.46 1017.07L4225.57 1032.21L4239.38 1044.7H4244.65L4268.99 1045.36H4278.2L4289.38 1047.99L4301.22 1046.68L4326.88 1031.55L4336.75 1028.26L4349.9 1026.28L4381.48 1035.49L4391.35 1038.78L4398.59 1042.07L4405.82 1043.39L4406.48 1040.1L4405.82 1036.15L4403.85 1030.23L4406.48 1024.97L4414.37 1023H4424.24L4429.5 1030.23L4433.45 1028.26V1023.65L4430.82 1012.47L4429.5 1000.63L4436.08 994.707L4453.19 991.418L4460.42 984.839L4528.18 931.552L4539.37 917.737L4549.89 913.79L4639.36 869.713L4649.89 864.45L4664.36 860.503L4678.84 864.45L4679.49 858.529L4684.76 849.977L4693.97 842.74L4701.2 844.714L4708.44 846.688L4716.33 843.398L4731.46 836.82L4741.99 833.53L4749.88 838.793L4763.7 843.398L4774.88 840.109L4813.04 846.03L4732.78 1088.12L4746.6 1131.54L4755.15 1153.91L4763.7 1155.23L4781.46 1162.46V1171.01L4775.54 1198.65L4800.54 1221.67L4849.22 1228.25L4861.72 1234.83L4863.04 1261.8H4853.17V1274.96L4849.22 1286.14L4662.39 1580.86L4626.21 1647.31L4575.55 1728.23L4573.58 1767.04L4518.32 1840.72L4503.19 1847.96L4476.87 1849.93L4460.42 1896.64L4388.06 1953.22L4372.93 1990.71L4346.61 2019L4325.56 2034.79L4307.14 2038.08L4267.67 2054.53L4243.99 2058.47L4207.15 2047.29L4198.59 2042.69L4186.09 2040.05L4178.86 2042.69C4176.67 2044.22 4172.02 2047.29 4170.96 2047.29C4169.91 2047.29 4165.26 2041.15 4163.07 2038.08H4152.54L4144.65 2045.97L4130.83 2047.29L4109.78 2038.08L4093.34 2050.58H4084.78C4082.68 2050.58 4074.26 2051.46 4070.31 2051.9L4051.89 2057.16L4034.79 2051.9L4006.5 2050.58L3973.6 2059.79H3894L3874.27 2047.95L3836.11 2036.11L3826.24 2018.34L3800.59 2003.87L3768.35 1987.42L3744.67 1981.5L3730.19 1975.58L3704.54 1957.82Z" stroke="black" stroke-width="10"/>
</svg>
