<svg width="7820" height="5531" viewBox="0 0 7820 5531" fill="none" xmlns="http://www.w3.org/2000/svg">
<path d="M4428.85 4075.49L4407.8 4105.09L4397.93 4093.25L4388.06 4080.75L4381.48 4055.75H4370.95L4363.72 4051.15L4337.4 4026.15L4328.19 4017.59L4300.56 4012.33L4299.25 4005.09L4293.98 3976.81L4284.12 3960.36L4257.8 3939.97L4233.46 3937.99L4232.15 3941.28L4228.2 3956.41L4185.44 3954.44L4176.88 3968.91L4158.46 3964.31V3972.86L4145.31 3976.15L4134.78 3972.86L4109.12 3927.47L4100.57 3914.97L4087.42 3901.15L4078.86 3897.2L4074.26 3887.99L4078.86 3876.81L4084.78 3868.92V3863L4069.65 3841.94V3834.71L4071.63 3825.5L4074.26 3815.63L4071.63 3813.66H4058.47L4051.89 3807.08L4054.52 3798.53L4060.44 3791.95L4065.71 3786.03L4063.73 3784.05H4051.89L4052.55 3765.63L4048.6 3774.18L4038.73 3783.39L4025.58 3780.1L4015.05 3771.55L4025.58 3753.13L4019 3760.37H4000.58L3994.66 3750.5V3726.82L3950.58 3696.56L3939.4 3687.35L3929.53 3690.64L3924.92 3660.37L3918.34 3665.64L3920.98 3687.35L3914.4 3703.13H3901.24L3888.74 3696.56L3880.85 3687.35V3675.5L3878.21 3665.64L3868.35 3660.37V3665.64L3863.74 3677.48H3852.56L3847.29 3669.58V3642.61L3826.24 3647.87L3802.56 3642.61L3807.17 3656.43L3799.27 3665.64L3792.69 3667.61L3778.88 3660.37L3776.9 3672.22L3766.38 3677.48V3672.22V3642.61L3770.32 3629.45L3772.3 3625.51V3613.67L3807.17 3560.38L3826.24 3548.54L3840.06 3533.41L3876.24 3495.25L3897.95 3486.04L3901.24 3476.17L3932.16 3457.09L3990.05 3387.36L4012.42 3373.54L4043.34 3334.73L4120.97 3245.92L4182.15 3097.24L4192.02 3086.06L4301.88 2987.38L4359.11 2938.04L4388.06 2899.88L4504.5 2776.86L4573.58 2701.87L4655.15 2612.4L4703.83 2553.19L4760.41 2505.82L4824.88 2452.53L4893.96 2393.33L5078.82 2205.84L5199.21 2101.89L5218.94 2082.81L5305.12 2022.95L5330.78 2040.05L5601.82 2177.55L5617.61 2180.18L5693.26 2216.36L5826.81 2274.25L5638.66 2388.06L5478.8 2423.59L5374.2 2551.21L5220.92 2897.25L5041.32 3367.62L5035.4 3372.23L4958.43 3432.09L4852.51 3566.3L4737.39 3695.9L4725.54 3714.98L4614.36 3811.02L4528.84 3963.65L4476.21 4021.54L4428.85 4075.49Z" stroke="black" stroke-width="10"/>
</svg>
