<svg width="7820" height="5531" viewBox="0 0 7820 5531" fill="none" xmlns="http://www.w3.org/2000/svg">
<path d="M2527 4138L2511 4160.5L2503.5 4151.5L2496 4142L2491 4123H2483L2477.5 4119.5L2457.5 4100.5L2450.5 4094L2429.5 4090L2428.5 4084.5L2424.5 4063L2417 4050.5L2397 4035L2378.5 4033.5L2377.5 4036L2374.5 4047.5L2342 4046L2335.5 4057L2321.5 4053.5V4060L2311.5 4062.5L2303.5 4060L2284 4025.5L2277.5 4016L2267.5 4005.5L2261 4002.5L2257.5 3995.5L2261 3987L2265.5 3981V3976.5L2254 3960.5V3955L2255.5 3948L2257.5 3940.5L2255.5 3939H2245.5L2240.5 3934L2242.5 3927.5L2247 3922.5L2251 3918L2249.5 3916.5H2240.5L2241 3902.5L2238 3909L2230.5 3916L2220.5 3913.5L2212.5 3907L2220.5 3893L2215.5 3898.5H2201.5L2197 3891V3873L2163.5 3850L2155 3843L2147.5 3845.5L2144 3822.5L2139 3826.5L2141 3843L2136 3855H2126L2116.5 3850L2110.5 3843V3834L2108.5 3826.5L2101 3822.5V3826.5L2097.5 3835.5H2089L2085 3829.5V3809L2069 3813L2051 3809L2054.5 3819.5L2048.5 3826.5L2043.5 3828L2033 3822.5L2031.5 3831.5L2023.5 3835.5V3831.5V3809L2026.5 3799L2028 3796V3787L2054.5 3746.5L2069 3737.5L2079.5 3726L2107 3697L2123.5 3690L2126 3682.5L2149.5 3668L2193.5 3615L2210.5 3604.5L2234 3575L2293 3507.5L2339.5 3394.5L2347 3386L2430.5 3311L2474 3273.5L2496 3244.5L2584.5 3151L2637 3094L2699 3026L2736 2981L2779 2945L2828 2904.5L2880.5 2859.5L3021 2717L3112.5 2638L3127.5 2623.5L3193 2578L3212.5 2591L3418.5 2695.5L3430.5 2697.5L3488 2725L3589.5 2769L3446.5 2855.5L3325 2882.5L3245.5 2979.5L3129 3242.5L2992.5 3600L2988 3603.5L2929.5 3649L2849 3751L2761.5 3849.5L2752.5 3864L2668 3937L2603 4053L2563 4097L2527 4138Z" stroke="black" stroke-width="10"/>
</svg>
