<svg width="7820" height="5531" viewBox="0 0 7820 5531" fill="none" xmlns="http://www.w3.org/2000/svg">
<path d="M2844.89 3994.62L2885.89 4009.62L2886.5 4009.84L2887.03 4010.21L3110.93 4166.44L3334.59 4185.31L3335.75 4185.41L3336.74 4186.01L3344.23 4190.5L3344.54 4190.68L3344.82 4190.91L3350.34 4195.42L3357.94 4198.72L3358.49 4198.96L3358.96 4199.31C3358.9 4199.27 3359.33 4199.56 3360.33 4200.23C3361.21 4200.83 3362.37 4201.6 3363.51 4202.36C3364.65 4203.12 3365.79 4203.88 3366.64 4204.45C3367.06 4204.73 3367.41 4204.97 3367.66 4205.13C3367.78 4205.21 3367.88 4205.28 3367.95 4205.32C3367.98 4205.34 3368 4205.36 3368.02 4205.37C3368.03 4205.38 3368.04 4205.38 3368.04 4205.38C3368.04 4205.39 3368.04 4205.39 3368.04 4205.39L3368.05 4205.39L3369.99 4206.68L3370.24 4209L3370.73 4213.4L3371.58 4218.9L3375.95 4226.77L3386.7 4240.46L3388.22 4242.38L3387.62 4244.76L3384.62 4256.76L3384.19 4258.48L3382.77 4259.55L3370.77 4268.55L3368.68 4270.12L3366.19 4269.29L3359.7 4267.12L3356.7 4284.4L3356.53 4285.39L3355.99 4286.23L3348.99 4297.23L3348.7 4297.69L3336.6 4309.79L3335.86 4318.65L3340.76 4329.25L3353.68 4338.48L3355.36 4339.68L3355.7 4341.72L3356.71 4347.72L3356.8 4348.31L3356.76 4348.9L3355.76 4362.9L3355.66 4364.25L3354.9 4365.37L3341.9 4384.37L3340.66 4386.19L3338.48 4386.5L3331.48 4387.5L3329 4387.85L3325.68 4384.52L3323.44 4390.34L3322.48 4392.85L3319.86 4393.43L3310.86 4395.43L3308.86 4395.87L3307.12 4394.79L3300 4390.34L3281.5 4387.56L3256.97 4388.55L3255.45 4388.61L3254.15 4387.81L3248.21 4384.15L3247.76 4390.88L3247.67 4392.27L3246.87 4393.42L3232.87 4413.42L3231.83 4414.9L3230.09 4415.37L3215.01 4419.48L3215.84 4420.64L3216.98 4422.23L3216.73 4424.17L3214.73 4440.17L3214.27 4443.91L3210.54 4444.49L3196.63 4446.66L3186.85 4460.44L3185.83 4461.87L3184.15 4462.36L3177.15 4464.36L3175.46 4464.84L3173.85 4464.16L3164.08 4460.09L3157.2 4463.92L3155.95 4464.61L3154.52 4464.54L3125.02 4463.04L3121.84 4462.88L3120.64 4459.93L3116.73 4450.3L3112.49 4453.87L3111.49 4454.71L3114 4461.91L3114.42 4463.13L3114.2 4464.42L3112.7 4472.92L3112.18 4475.85L3109.35 4476.79L3105.27 4478.15V4479.05L3105.27 4479.13L3105.27 4479.21L3104.82 4493.66L3110.99 4503.36L3113.14 4506.75L3110.31 4509.58L3105.92 4513.97L3101.79 4522.69L3101.61 4523.07L3101.37 4523.42L3087.37 4543.42L3086.58 4544.55L3085.32 4545.11L3056.32 4558.11L3055.23 4558.6L3054.03 4558.54L3033.97 4557.59L3019.85 4562.29L3019.05 4562.56L3018.21 4562.55L2862.21 4560.55L2861.43 4560.54L2860.69 4560.29L2854.98 4558.39L2845.29 4556.45L2844.93 4556.38L2844.58 4556.25L2819.58 4547.25L2817.76 4546.6L2816.85 4544.89L2812.95 4537.51L2800.76 4529.38L2781.04 4519.52L2780.12 4519.07L2779.46 4518.29L2763.21 4499.17L2748.27 4492.63L2747.05 4492.09L2746.25 4491.02L2740.7 4483.51L2739.21 4484.59L2738.72 4484.95L2738.17 4485.18L2716.17 4494.18L2680.81 4509.19L2666.57 4525.8L2664.96 4527.68L2662.5 4527.54L2581.47 4523.07L2527.12 4530.48L2489.95 4538.1L2490.72 4540.2L2475.82 4545.66L2329.66 4606.51L2281.88 4632.4L2281.53 4632.59L2281.15 4632.72C2262.8 4639.15 2254.87 4642.82 2246 4647.23C2236.98 4651.71 2226.9 4657.01 2204.6 4666.54L2170.21 4683.49L2169.47 4683.85L2168.66 4683.96L2161.16 4684.96L2155.68 4685.69L2155.5 4680.16L2154.51 4649.38L2153.54 4641.15L2151.79 4628.7L2151.71 4628.12L2151.77 4627.53L2152.52 4619.54L2153.22 4612.08L2149.55 4583.19L2140.37 4517.49L2139.19 4513.37L2137.88 4508.77L2142.42 4507.26L2145.53 4506.22L2146.74 4505.01L2147.34 4505.62L2152.36 4503.94L2280.85 4423.76L2282.33 4422.84L2284.06 4423.03L2312.2 4426.21L2323.49 4411.02L2324.99 4409H2343.9L2347.34 4407.41L2349.47 4400.14L2350.53 4396.55H2354.27L2363.98 4396.55L2368.53 4392.14L2362.67 4374.55L2364.37 4372.42L2383.88 4348.04L2390.83 4329.73L2391.44 4328.11L2392.93 4327.21L2406.87 4318.85L2414.73 4305.91L2415.34 4304.9L2416.34 4304.27L2433.84 4293.27L2434.1 4293.1L2434.39 4292.97L2478.39 4272.47L2479.93 4271.75L2481.58 4272.12L2501.14 4276.46L2506.56 4270.09L2507.5 4242.33L2507.58 4240.18L2509.19 4238.75L2523.53 4226.07L2527.02 4196.37L2524.74 4194.08L2524.31 4193.66L2524 4193.15L2510 4170.15L2509.92 4170.02L2509.85 4169.89L2501.08 4153.34L2499.46 4150.28L2501.76 4147.68L2595.43 4041.99L2596.35 4040.96L2597.67 4040.54L2743.67 3994.54L2744.51 3994.28L2745.39 3994.32L2814.02 3997.3L2842.66 3994.34L2843.81 3994.22L2844.89 3994.62ZM2602 4049.66L2511.54 4151.72L2518.62 4165.08L2532.23 4187.44L2535.81 4191.01L2537.52 4192.73L2537.24 4195.13L2533.24 4229.13L2533.01 4231.03L2531.58 4232.29L2517.42 4244.82L2516.5 4272.17L2516.44 4273.91L2515.31 4275.24L2506.81 4285.24L2504.86 4287.54L2501.92 4286.88L2481.07 4282.25L2438.89 4301.9L2422.66 4312.1L2414.77 4325.09L2414.13 4326.15L2413.07 4326.79L2399.56 4334.89L2392.95 4352.32L2392.67 4353.06L2392.18 4353.67L2373.88 4376.55L2379.02 4391.97L2380.01 4394.95L2377.75 4397.14L2369.48 4405.14L2368.02 4406.55H2358.02L2356.3 4412.41L2355.66 4414.59L2353.6 4415.54L2347.09 4418.54L2346.1 4419H2345L2330.01 4419L2318.51 4434.48L2316.8 4436.79L2313.94 4436.47L2284.67 4433.16L2157.15 4512.74L2156.64 4513.06L2156.08 4513.24L2150.93 4514.96L2150.24 4515.65L2150.81 4517.63L2150.5 4517.71L2159.45 4581.81L2159.46 4581.87L2163.21 4611.37L2163.28 4611.92L2163.22 4612.47L2162.47 4620.47L2161.78 4627.88L2163.45 4639.81L2163.46 4639.86L2163.47 4639.92L2164.47 4648.42L2164.49 4648.63L2164.5 4648.84L2165.32 4674.31L2166.53 4674.15L2200.29 4657.51L2200.41 4657.46L2200.54 4657.4C2222.63 4647.97 2232.49 4642.78 2241.55 4638.27C2250.73 4633.71 2258.99 4629.9 2277.46 4623.42L2325.12 4597.6L2325.34 4597.48L2325.58 4597.38L2472.08 4536.39L2472.18 4536.34L2472.28 4536.31L2486.75 4531L2486.27 4528.65L2525.27 4520.65L2525.43 4520.62L2525.6 4520.59L2580.6 4513.09L2581.07 4513.03L2581.55 4513.06L2660.58 4517.42L2673.98 4501.79L2674.74 4500.9L2675.82 4500.45L2712.32 4484.95L2712.35 4484.93L2712.38 4484.92L2733.82 4476.15L2738.83 4472.51L2742.84 4469.59L2745.79 4473.58L2753.5 4484L2768.28 4490.47L2769.33 4490.93L2770.08 4491.81L2786.42 4511.03L2805.51 4520.58L2805.79 4520.72L2806.05 4520.89L2819.55 4529.89L2820.6 4530.59L2821.19 4531.71L2824.79 4538.5L2847.62 4546.72L2857.25 4548.65L2857.56 4548.71L2857.85 4548.81L2863.11 4550.56L3017.49 4552.54L3031.69 4547.81L3032.58 4547.51L3033.51 4547.55L3053.32 4548.5L3079.97 4536.55L3092.93 4518.03L3097.25 4508.91L3097.62 4508.13L3098.24 4507.51L3100.4 4505.35L3095.55 4497.73L3094.73 4496.43L3094.78 4494.89L3095.27 4478.99L3095.27 4474.55H3100.27L3098.69 4469.8L3103.37 4468.25L3104.12 4463.96L3100.55 4453.69L3100.54 4453.66L3100.53 4453.63L3095.53 4438.63L3104.38 4434.2L3110.25 4442.68L3115.55 4438.22L3120.81 4433.79L3123.4 4440.17L3128.71 4453.22L3153.59 4454.48L3161.34 4450.18L3163.46 4449L3165.7 4449.93L3176.08 4454.26L3179.71 4453.22L3189.7 4439.15L3190.92 4437.43L3193 4437.11L3205.28 4435.19L3206.57 4424.87L3202.7 4419.45L3198.53 4413.61L3205.46 4411.72L3225.71 4406.2L3237.88 4388.82L3238.78 4375.22L3239.33 4366.95L3246.39 4371.29L3258.09 4378.49L3281.57 4377.55L3282.04 4377.53L3302.51 4380.6L3303.54 4380.76L3304.42 4381.31L3310.69 4385.22L3315.07 4384.25L3319.11 4373.75L3321.87 4366.57L3327.31 4372.01L3332.54 4377.25L3334.89 4376.91L3345.88 4360.84L3346.74 4348.78L3346.18 4345.41L3333.87 4336.62L3332.79 4335.84L3332.23 4334.64L3326.23 4321.64L3325.68 4320.44L3325.79 4319.13L3326.79 4307.13L3326.94 4305.31L3328.24 4304.01L3340.85 4291.4L3347.02 4281.7L3350.85 4259.69L3351.84 4253.97L3357.35 4255.8L3366.87 4258.97L3375.35 4252.61L3377.33 4244.71L3367.84 4232.63L3367.59 4232.32L3367.4 4231.97L3362.4 4222.97L3361.97 4222.19L3361.83 4221.31L3360.83 4214.81L3360.81 4214.71L3360.8 4214.6L3360.56 4212.42C3359.8 4211.9 3358.88 4211.29 3357.96 4210.68C3356.33 4209.59 3354.47 4208.35 3353.53 4207.71L3345.73 4204.32L3345.09 4204.04L3344.55 4203.61L3338.77 4198.88L3332.59 4195.18L3108.75 4176.29L3107.41 4176.18L3106.31 4175.41L2881.84 4018.78L2842.54 4004.4L2814.69 4007.28L2814.32 4007.32L2813.96 4007.31L2745.83 4004.34L2602 4049.66Z" fill="black"/>
</svg>
