<svg width="7820" height="5531" viewBox="0 0 7820 5531" fill="none" xmlns="http://www.w3.org/2000/svg">
<path d="M4846.56 3888.31L4900.51 3908.05L4901.12 3908.27L4901.65 3908.64L5196.59 4114.44L5491.29 4139.31L5492.44 4139.41L5493.44 4140L5503.29 4145.91L5503.6 4146.1L5503.88 4146.33L5511.31 4152.4L5521.51 4156.83L5522.06 4157.06L5522.53 4157.42C5522.57 4157.44 5523.2 4157.87 5524.4 4158.68C5525.57 4159.46 5527.09 4160.47 5528.59 4161.48C5530.1 4162.49 5531.59 4163.48 5532.71 4164.23C5533.26 4164.6 5533.73 4164.91 5534.05 4165.12C5534.21 4165.23 5534.34 4165.32 5534.43 4165.38C5534.47 4165.4 5534.5 4165.43 5534.53 4165.44C5534.54 4165.45 5534.55 4165.45 5534.55 4165.46C5534.55 4165.46 5534.56 4165.46 5534.56 4165.46L5534.56 4165.46H5534.56L5536.5 4166.76L5536.76 4169.07L5537.4 4174.87L5538.57 4182.45L5544.52 4193.16L5558.74 4211.27L5560.26 4213.19L5559.66 4215.57L5555.29 4233.08L5553.87 4234.15L5538.08 4245.99L5535.98 4247.56L5533.5 4246.73L5523.22 4243.3L5518.95 4267.84L5518.78 4268.83L5518.24 4269.67L5509.03 4284.14L5508.74 4284.61L5508.35 4284.99L5492.54 4300.8L5491.49 4313.45L5498.27 4328.16L5515.61 4340.55L5517.3 4341.75L5517.64 4343.79L5518.96 4351.69L5519.05 4352.27L5519.01 4352.86L5517.7 4371.28L5517.6 4372.63L5516.84 4373.75L5499.73 4398.75L5498.49 4400.57L5496.31 4400.88L5487.1 4402.2L5484.63 4402.55L5482.86 4400.78L5479.09 4397.01L5475.27 4406.94L5474.31 4409.44L5471.69 4410.02L5459.85 4412.65L5457.85 4413.1L5456.11 4412.01L5446.47 4405.98L5421.65 4402.26L5389.23 4403.56L5387.71 4403.62L5386.41 4402.82L5376.36 4396.64L5375.6 4408.1L5375.5 4409.5L5374.71 4410.64L5356.29 4436.95L5355.25 4438.43L5353.51 4438.91L5331.48 4444.91L5333.89 4448.28L5335.03 4449.87L5334.78 4451.81L5332.15 4472.86L5331.68 4476.6L5327.96 4477.18L5309 4480.15L5295.74 4498.82L5294.73 4500.25L5293.04 4500.73L5283.83 4503.36L5282.15 4503.85L5280.53 4503.17L5266.98 4497.52L5257.25 4502.93L5256 4503.62L5254.57 4503.55L5215.76 4501.58L5212.58 4501.42L5211.38 4498.47L5205.42 4483.79L5198.18 4489.88L5196.03 4491.69L5199.68 4502.18L5200.11 4503.41L5199.88 4504.69L5197.91 4515.87L5197.39 4518.81L5194.57 4519.75L5188.12 4521.89V4524.29L5188.12 4524.37L5187.51 4543.88L5195.89 4557.05L5198.04 4560.44L5195.21 4563.27L5189.24 4569.24L5183.69 4580.96L5183.51 4581.34L5183.27 4581.69L5164.85 4608L5164.06 4609.13L5162.8 4609.69L5124.64 4626.8L5123.55 4627.29L5122.36 4627.23L5095.66 4625.96L5076.81 4632.24L5076.01 4632.51L5075.17 4632.5L4869.91 4629.87L4869.13 4629.86L4868.39 4629.61L4860.79 4627.08L4847.94 4624.51L4847.58 4624.44L4847.23 4624.31L4814.34 4612.47L4812.52 4611.81L4811.61 4610.1L4806.28 4600.04L4789.83 4589.07L4763.8 4576.05L4762.88 4575.6L4762.22 4574.82L4740.6 4549.38L4720.61 4540.64L4719.39 4540.1L4718.59 4539.03L4710.36 4527.89L4707.13 4530.23L4706.65 4530.59L4706.09 4530.81L4677.14 4542.66L4630.25 4562.57L4611.28 4584.7L4609.68 4586.58L4607.21 4586.44L4500.46 4580.55L4428.74 4590.32L4379.55 4600.41L4380.57 4603.18L4360.93 4610.39L4168.52 4690.5L4105.58 4724.59L4105.23 4724.78L4104.86 4724.91C4080.65 4733.4 4070.15 4738.25 4058.43 4744.08C4046.55 4749.98 4033.32 4756.94 4003.99 4769.47L3958.71 4791.78L3957.97 4792.14L3957.16 4792.25L3947.29 4793.57L3941.81 4794.3L3941.63 4788.77L3940.33 4748.19L3939.04 4737.29L3936.74 4720.89L3936.66 4720.31L3936.71 4719.73L3937.7 4709.2L3938.64 4699.23L3933.78 4660.96H3933.78L3921.7 4574.47L3920.12 4568.94L3918.8 4564.34L3923.34 4562.83L3927.79 4561.34L3929.64 4559.49L3930.57 4560.42L3936.59 4558.41L4105.82 4452.81L4107.3 4451.88L4109.03 4452.08L4146.96 4456.36L4162.35 4435.65L4163.84 4433.63H4188.29L4193.78 4431.09L4196.79 4420.84L4197.84 4417.24H4201.58L4214.99 4417.24L4222.16 4410.31L4214.4 4387.04L4216.1 4384.91L4241.92 4352.63L4251.15 4328.31L4251.77 4326.68L4253.26 4325.79L4271.93 4314.59L4282.47 4297.22L4283.09 4296.21L4284.09 4295.58L4307.11 4281.11L4307.38 4280.94L4307.66 4280.81L4365.55 4253.84L4367.09 4253.12L4368.75 4253.49L4395.41 4259.42L4403.52 4249.88L4404.77 4212.81L4404.84 4210.66L4406.46 4209.23L4425.78 4192.14L4430.54 4151.71L4426.99 4148.16L4426.56 4147.74L4426.25 4147.23L4407.83 4116.96L4407.75 4116.84L4407.68 4116.71L4396.14 4094.93L4394.52 4091.87L4396.82 4089.27L4520.07 3950.22L4520.98 3949.18L4522.3 3948.76L4714.4 3888.24L4715.24 3887.98L4716.12 3888.01L4806.54 3891.95L4844.33 3888.04L4845.48 3887.92L4846.56 3888.31ZM4526.63 3957.88L4406.6 4093.31L4416.45 4111.89L4434.48 4141.51L4441.03 4148.07L4440.75 4150.47L4435.49 4195.21L4435.26 4197.1L4433.83 4198.37L4414.69 4215.3L4413.45 4251.96L4413.39 4253.7L4412.26 4255.03L4401.08 4268.19L4399.13 4270.49L4396.18 4269.83L4368.24 4263.62L4312.17 4289.74L4290.41 4303.42L4279.84 4320.83L4279.2 4321.89L4278.14 4322.53L4259.89 4333.48L4250.99 4356.92L4250.71 4357.65L4250.22 4358.27L4225.61 4389.03L4232.64 4410.14L4233.64 4413.12L4231.38 4415.31L4220.49 4425.84L4219.04 4427.24H4217.01L4205.33 4427.24L4202.73 4436.09L4202.09 4438.27L4200.03 4439.22L4191.48 4443.17L4190.48 4443.63H4189.38L4168.87 4443.63L4153.27 4464.63L4151.55 4466.94L4148.69 4466.62L4109.64 4462.21L3941.39 4567.21L3940.88 4567.52L3940.32 4567.71L3933.19 4570.08L3931.42 4571.85L3931.5 4572.39L3932.36 4575.4L3931.94 4575.52L3943.69 4659.64L3943.7 4659.7L3948.63 4698.51L3948.7 4699.06L3948.65 4699.61L3947.66 4710.14L3946.73 4720.08L3948.95 4735.95L3948.96 4736L3948.97 4736.06L3950.28 4747.24L3950.31 4747.45L3950.31 4747.66L3951.45 4782.92L3955.03 4782.45L3999.68 4760.44L3999.8 4760.38L3999.93 4760.33C4029.05 4747.9 4042.06 4741.05 4053.98 4735.12C4066.01 4729.14 4076.84 4724.15 4101.17 4715.61L4163.98 4681.59L4164.2 4681.47L4164.44 4681.37L4357.19 4601.11L4357.29 4601.07L4357.39 4601.03L4376.21 4594.13L4375.57 4591.02L4426.89 4580.5L4427.05 4580.46L4427.21 4580.44L4499.58 4570.57L4500.05 4570.51L4500.53 4570.53L4605.3 4576.32L4623.43 4555.17L4624.19 4554.28L4625.27 4553.82L4673.29 4533.43L4673.35 4533.4L4701.74 4521.79L4708.49 4516.88L4712.5 4513.96L4715.45 4517.95L4725.84 4532.01L4745.67 4540.69L4746.73 4541.15L4747.47 4542.03L4769.18 4567.56L4794.58 4580.27L4794.86 4580.4L4795.12 4580.58L4812.88 4592.42L4813.94 4593.12L4814.53 4594.24L4819.54 4603.71L4850.27 4614.77L4863.06 4617.33L4863.37 4617.39L4870.82 4619.88L5074.45 4622.49L5093.38 4616.18L5094.27 4615.88L5095.2 4615.93L5121.64 4617.18L5157.45 4601.13L5174.83 4576.3L5180.57 4564.18L5180.94 4563.4L5181.56 4562.78L5185.3 4559.04L5178.24 4547.95L5177.42 4546.65L5177.46 4545.11L5178.12 4524.12V4518.29H5183.11L5181.53 4513.55L5188.58 4511.2L5189.81 4504.23L5184.98 4490.33L5184.95 4490.27L5178.38 4470.53L5187.23 4466.11L5195.94 4478.69L5204.24 4471.71L5209.5 4467.27L5212.09 4473.65L5219.45 4491.75L5253.65 4493.49L5264.24 4487.61L5266.35 4486.43L5268.59 4487.36L5282.76 4493.27L5288.6 4491.6L5302.06 4472.64L5303.28 4470.92L5305.37 4470.59L5322.7 4467.88L5324.62 4452.51L5319.17 4444.89L5315 4439.04L5321.93 4437.16L5349.13 4429.74L5365.71 4406.05L5366.94 4387.7L5367.49 4379.44L5374.55 4383.78L5390.35 4393.5L5421.72 4392.25L5422.2 4392.23L5422.67 4392.3L5448.98 4396.25L5450.01 4396.4L5450.89 4396.95L5459.68 4402.45L5466.9 4400.84L5472.52 4386.24L5475.28 4379.06L5480.72 4384.5L5488.16 4391.94L5492.72 4391.29L5507.82 4369.22L5508.99 4352.74L5508.12 4347.48L5491.38 4335.53L5490.3 4334.76L5489.75 4333.55L5481.85 4316.45L5481.3 4315.25L5481.41 4313.94L5482.73 4298.15L5482.88 4296.32L5484.17 4295.03L5500.89 4278.31L5509.27 4265.14L5514.36 4235.87L5515.36 4230.14L5520.87 4231.98L5534.17 4236.41L5546.44 4227.21L5549.37 4215.52L5536.41 4199.02L5536.16 4198.71L5535.97 4198.36L5529.39 4186.52L5528.96 4185.74L5528.82 4184.85L5527.5 4176.31L5527.49 4176.2L5527.48 4176.1L5527.07 4172.49C5525.97 4171.75 5524.51 4170.78 5523.04 4169.79C5520.76 4168.28 5518.24 4166.59 5517.1 4165.81L5506.7 4161.3L5506.06 4161.02L5505.53 4160.58L5497.83 4154.3L5489.29 4149.17L5194.41 4124.3L5193.07 4124.18L5191.97 4123.41L4896.46 3917.22L4844.21 3898.1L4807.2 3901.93L4806.84 3901.97L4806.47 3901.95L4716.57 3898.04L4526.63 3957.88Z" fill="black"/>
</svg>
