<svg width="7820" height="5531" viewBox="0 0 7820 5531" fill="none" xmlns="http://www.w3.org/2000/svg">
<path d="M1906 2537.5L1919.5 2554V2559.5L1890.5 2586.5L1860.5 2670L1846.5 2697L1828 2746.5L1764 2833.5L1740.5 2876.5L1679.5 2958.5L1601 3044.5L1431.5 3156.5L1372.5 3187L1275 3246L1179.5 3311.5L1114 3360.5L1056 3409.5L1000.5 3461L971 3484L950.5 3499.5L928 3516.5L924.5 3523L869 3572L819.5 3613L807.5 3618.5L722 3686.5V3695.5L674.5 3730L647 3747L629 3760.5L614.5 3769L601 3776L590 3780.5V3764L592 3752L587 3739.5V3701V3679.5L574.5 3650L569.5 3629C568.833 3626 567.4 3619.4 567 3617C566.6 3614.6 565.167 3607 564.5 3603.5L557.5 3591L572.5 3570L589 3565L600.5 3559.5L606 3550L617 3548.5L624.5 3541.5L638 3536L642.5 3524.5L658 3520.5C666.5 3507.67 683.8 3482 685 3482H694L698 3476.5L714 3464.5L730.5 3430.5V3420.5L723 3410L711 3405L703.5 3396L700 3380.5C698.667 3378.83 696 3375.2 696 3374C696 3372.8 693 3368.83 691.5 3367L688.5 3358.5L686 3354V3349.5C686 3348.3 684 3345 683 3343.5L682 3333L676.5 3319C678 3317.33 681.2 3313.8 682 3313C682.8 3312.2 685 3308 686 3306V3292.5V3286.5L683 3278.5L691.5 3277H696L705 3278.5L709.5 3277V3271.5V3264L717 3259.5V3254.5L720.5 3247.5L728 3239.5L737 3241L748 3244.5L757.5 3239.5L778.5 3237.5L782 3241L784 3249.5L788 3259.5L794 3264L800 3262.5L815 3261L826.5 3254.5L844 3237.5L857 3208.5L859 3197.5V3192.5L856 3190.5L853 3187L850.5 3185H843L841.5 3178L838 3174L823 3143L805 3129.5L785 3100.5L771.5 3064L759 3026.5L755.5 3013.5L744.5 3004L720.5 2973L717.5 2959.5L695.5 2942.5L680 2908.5L657.5 2883L644 2853.5L634.5 2841.5L609.5 2800L595 2787.5L584 2772.5L571 2758.5L550 2748.5L511 2747L505.5 2744L502 2736.5L475 2721L468 2716L464 2708L475 2698L464 2688V2679.5L472 2674L483.5 2672L486.5 2664.5L517.5 2640L525.5 2635.5L581 2618.5L598.5 2614L612.5 2606L640.5 2599.5L649.5 2592.5L655 2571.5L674 2560.5L690 2543.5L707 2547.5L728.5 2546L763 2526.5L800.5 2497L848 2466.5L909.5 2432.5L939.5 2413.5L991 2370.5L1020.5 2352.5L1042 2337.5L1067.5 2382.5L1091.5 2410.5L1113.5 2427L1136.5 2436L1158 2433.5L1235 2406L1239.5 2393L1274.5 2358L1277 2335.5L1288.5 2315L1295 2306.5L1287.5 2296L1291 2285L1293 2260V2220.5L1274.5 2187.5L1264 2181L1268.5 2174L1287.5 2166.5L1296.5 2168L1303 2171.5H1309.5C1311 2161.83 1314 2142.3 1314 2141.5V2115L1318.5 2108H1323.5L1329.5 2112L1345.5 2118H1375.5L1378.5 2120L1404 2163L1411.5 2169.5C1414.5 2173 1420.7 2180.2 1421.5 2181C1422.3 2181.8 1429.17 2183.67 1432.5 2184.5L1441.5 2187L1443.5 2192L1448 2193L1455 2197.5L1465 2211L1475.5 2212.5L1491.5 2208L1523 2206L1543 2211L1571 2230.5H1575H1618.5L1638.5 2243.5L1645.5 2244.5L1677 2245.5L1687.5 2250L1693.5 2254L1730 2299.5L1759 2322L1762.5 2331L1815 2361.5L1822.5 2375L1837.5 2382.5L1840.5 2386.5L1851 2408.5L1861.5 2417L1871 2436V2456L1865 2471.5L1885.5 2506L1883.5 2522L1895 2536.5L1906 2537.5Z" stroke="black" stroke-width="10"/>
</svg>
