<svg width="7820" height="5531" viewBox="0 0 7820 5531" fill="none" xmlns="http://www.w3.org/2000/svg">
<path d="M833 4665.5L850 4662L860.5 4651L877.5 4634.5L880.5 4628L891.5 4621.5L903.5 4620L925.5 4618C927.333 4618.17 931.3 4618.8 932.5 4620C934 4621.5 940.5 4624 941 4624.5C941.4 4624.9 946.167 4628 948.5 4629.5L954.5 4631L964.5 4622L966 4615L973.5 4614L975.5 4610H991L1034.5 4586.5H1040.5L1055 4577L1064.5 4566.5L1082.5 4558C1085.5 4556.17 1091.6 4552.6 1092 4553C1092.4 4553.4 1102.83 4556.5 1108 4558L1126 4550L1136.5 4543L1139 4536.5L1155 4525.5L1175 4514.5L1184 4512.5C1186.33 4509.5 1191.1 4503.4 1191.5 4503C1191.9 4502.6 1193.33 4494.83 1194 4491L1191.5 4485.5L1190.5 4479.5L1195 4473V4458.5L1198 4453L1199.5 4443.5L1204 4437.5L1217.5 4427.5L1240 4415L1256.5 4414L1279.5 4405C1281 4404.17 1284.1 4402.5 1284.5 4402.5C1284.9 4402.5 1294.67 4403.5 1299.5 4404L1304.5 4406L1315.5 4410.5L1320.5 4416.5L1325 4422L1337.5 4435.5L1342.5 4450L1348.5 4458.5C1349.67 4459 1352.4 4460.1 1354 4460.5C1355.6 4460.9 1358 4460 1359 4459.5L1358 4436.5V4423L1359 4406L1372 4042L1685 3924.5L1688.5 3923.5L1701 3924.5L1703.5 3925.5L1704.5 3912.5L1705.5 3898L1704.5 3893L1715 3902L1722.5 3899.5L1725 3902L1722.5 3907.5L1719 3914L1722.5 3922L1727 3923.5L1740.5 3918.5L1746.5 3904L1748.5 3894L1750 3887.5L1756 3888.5L1755 3894L1753.5 3898L1753 3904.5L1759 3907.5L1770 3904.5L1779.5 3902L1797 3904.5C1801.33 3905 1810.1 3906 1810.5 3906C1811 3906 1816 3907.5 1817 3907.5C1817.8 3907.5 1818.67 3901.17 1819 3898L1820.5 3895L1826 3892.5H1831H1841.5C1842.83 3894.33 1845.7 3898.2 1846.5 3899C1847.3 3899.8 1853.17 3907 1856 3910.5L1872 3902.5L1871 3891L1875 3884L1889.5 3895L1906.5 3899L1916.5 3898L1917 3890.5V3881.5L1914 3876.5L1904.5 3870H1900.5L1898 3871.5L1896 3875L1912 3860L1915 3848L1916 3829L1917 3822.5C1919.5 3820.5 1924.6 3816.5 1925 3816.5C1925.4 3816.5 1932.5 3815.5 1936 3815L1947.5 3815.5L1982 3818L1993 3817.5L2003.5 3818C2005.33 3820.5 2009.2 3825.7 2010 3826.5C2011 3827.5 2014 3830.5 2015 3831C2015.8 3831.4 2022.33 3833.5 2025.5 3834.5L2032.5 3835L2034 3808.5L2035 3800.5L2037.5 3790.5L2046.5 3780L2061 3759L2068 3745.5L2080 3740.5L2101.5 3718L2127 3696.5L2135 3689.5L2140.5 3686.5L2158.5 3673L2188 3638.5L2204.5 3618.5L2213 3616L2218 3613L2261 3560.5L2297 3517L2307 3500.5L2320.5 3467L2333.5 3438.5L2352 3394.5L2434 3322L2483.5 3278.5L2500.5 3255L2555.5 3199.5L2705 3035L2742.5 2988.5L2746.5 2985L2850.5 2899.5L2895 2859L2937.5 2813.5L3012.5 2738L3142 2624.5L3193 2590L3217 2603.5L3397 2695.5L3594 2779L3561.5 2737.5L3536.5 2709.5L3501 2671L3397 2555.5L3283 2428.5L3242.5 2419L3220 2386.5L3216 2380.5L3000.5 2310.5L2933.5 2296L2881 2322.5L2875 2331L2623.5 2493L2494.5 2609L2487.5 2623L2437 2665.5V2675L2404 2697.5L2396 2699.5L2314.5 2773L2294.5 2807.5L2258 2839.5L2249 2854L2218 2875.5L2176 2915L2040 2999.5L2011.5 3012H1995.5L1992.5 3011L2000 3003L2005.5 2995L2007 2985.5L2002.5 2978.5L1992.5 2972L1983.5 2974.5L1977.5 2978.5L1970.5 2985.5V2995V3001V3006L1969.5 3011L1961 3032L1937 3047.5L1878.5 3084.5L1857.5 3104L1844 3127V3150.5L1861 3178.5L1856 3195L1832.5 3209V3228.5L1837.5 3235.5L1854.5 3241.5L1846 3256.5L1849.5 3267.5V3274L1844.5 3276H1836L1825 3284L1823 3290.5L1821 3298.5L1816.5 3306L1809 3295L1803 3280L1783 3269H1775.5L1774.5 3276L1771 3286.5L1769 3295L1742.5 3394L1720.5 3517.5L1548.5 3606.5L1523 3610L1470.5 3681.5V3691L1407 3776L1381.5 3815.5L1370 3829.5L1356 3867L1344.5 3874L1284.5 3938.5L1028.5 4271.5L971 4310.5L958 4344L936 4348L920.5 4372L909.5 4377.5L903 4385L901 4396L903 4402.5L918.5 4410L893 4411L879 4405L867 4409C865.333 4411.33 861.6 4416.2 860 4417C858.4 4417.8 856.333 4424.67 855.5 4428L854 4434.5L855.5 4441.5L843.5 4438H836L823.5 4450L817.5 4434.5L809 4433.5L797 4445V4459L795 4462.5L786 4467L782.5 4481L779.5 4484V4488V4492L784 4495L786 4498L772 4502L761.5 4506L751.5 4507.5L743 4503.5H732.5L728 4510H712.5H707.5H703L707.5 4516.5V4524.5V4530.5L714 4533.5L718 4537.5L721 4543L728 4560L736 4568.5L745 4580.5L754 4588L761 4595L796 4658.5L804 4662L814 4663L819 4668L833 4665.5Z" stroke="black" stroke-width="10"/>
</svg>
