<svg width="7820" height="5531" viewBox="0 0 7820 5531" fill="none" xmlns="http://www.w3.org/2000/svg">
<path d="M2200 4769.53L2222.37 4764.93L2236.18 4750.45L2258.55 4728.75L2262.5 4720.19L2276.97 4711.64L2292.76 4709.67L2321.71 4707.04C2324.12 4707.26 2329.34 4708.09 2330.92 4709.67C2332.89 4711.64 2341.44 4714.93 2342.1 4715.59C2342.63 4716.11 2348.9 4720.19 2351.97 4722.17L2359.86 4724.14L2373.02 4712.3L2374.99 4703.09L2384.86 4701.77L2387.49 4696.51H2407.89L2465.12 4665.59H2473.02L2492.09 4653.09L2504.59 4639.28L2528.28 4628.09C2532.22 4625.68 2540.25 4620.99 2540.78 4621.51C2541.3 4622.04 2555.03 4626.12 2561.83 4628.09L2585.51 4617.57L2599.33 4608.36L2602.62 4599.8L2623.67 4585.33L2649.98 4570.86L2661.82 4568.23C2664.89 4564.28 2671.16 4556.25 2671.69 4555.73C2672.22 4555.2 2674.1 4544.98 2674.98 4539.94L2671.69 4532.7L2670.38 4524.81L2676.3 4516.26V4497.18L2680.24 4489.94L2682.22 4477.44L2688.14 4469.55L2705.9 4456.39L2735.5 4439.94L2757.21 4438.63L2787.48 4426.79C2789.45 4425.69 2793.53 4423.5 2794.05 4423.5C2794.58 4423.5 2807.43 4424.81 2813.79 4425.47L2820.37 4428.1L2834.84 4434.02L2841.42 4441.92L2847.34 4449.15L2863.79 4466.92L2870.37 4485.99L2878.26 4497.18C2879.8 4497.84 2883.39 4499.28 2885.5 4499.81C2887.6 4500.34 2890.76 4499.15 2892.08 4498.49L2890.76 4468.23V4450.47L2892.08 4428.1L2909.18 3949.18L3321 3794.58L3325.61 3793.26L3342.05 3794.58L3345.34 3795.89L3346.66 3778.79L3347.98 3759.71L3346.66 3753.13L3360.48 3764.97L3370.34 3761.68L3373.63 3764.97L3370.34 3772.21L3365.74 3780.76L3370.34 3791.29L3376.26 3793.26L3394.03 3786.68L3401.92 3767.61L3404.55 3754.45L3406.53 3745.9L3414.42 3747.21L3413.1 3754.45L3411.13 3759.71L3410.47 3768.26L3418.37 3772.21L3432.84 3768.26L3445.34 3764.97L3468.36 3768.26C3474.07 3768.92 3485.6 3770.24 3486.13 3770.24C3486.79 3770.24 3493.36 3772.21 3494.68 3772.21C3495.73 3772.21 3496.87 3763.88 3497.31 3759.71L3499.28 3755.76L3506.52 3752.47H3513.1H3526.91C3528.67 3754.89 3532.44 3759.97 3533.49 3761.03C3534.55 3762.08 3542.27 3771.55 3545.99 3776.16L3567.04 3765.63L3565.73 3750.5L3570.99 3741.29L3590.07 3755.76L3612.44 3761.03L3625.59 3759.71L3626.25 3749.84V3738L3622.31 3731.42L3609.81 3722.87H3604.54L3601.25 3724.84L3598.62 3729.45L3619.67 3709.71L3623.62 3693.92L3624.94 3668.93L3626.25 3660.37C3629.54 3657.74 3636.25 3652.48 3636.78 3652.48C3637.3 3652.48 3646.65 3651.16 3651.25 3650.51L3666.38 3651.16L3711.77 3654.45L3726.25 3653.8L3740.06 3654.45C3742.48 3657.74 3747.56 3664.58 3748.62 3665.64C3749.93 3666.95 3753.88 3670.9 3755.19 3671.56C3756.25 3672.08 3764.84 3674.85 3769.01 3676.16L3778.22 3676.82L3780.19 3641.95L3781.51 3631.43L3784.8 3618.27L3796.64 3604.46L3815.72 3576.82L3824.93 3559.06L3840.72 3552.48L3869 3522.88L3902.56 3494.59L3913.08 3485.38L3920.32 3481.43L3944 3463.67L3982.81 3418.28L4004.52 3391.97L4015.71 3388.68L4022.29 3384.73L4078.86 3315.65L4126.23 3258.42L4139.39 3236.71L4157.15 3192.63L4174.25 3155.13L4198.59 3097.24L4306.48 3001.85L4371.61 2944.62L4393.98 2913.7L4466.35 2840.67L4663.05 2624.24L4712.39 2563.06L4717.65 2558.45L4854.49 2445.96L4913.04 2392.67L4968.95 2332.8L5067.63 2233.47L5238.02 2084.13L5305.12 2038.74L5336.7 2056.5L5573.53 2177.55L5832.73 2287.41L5789.97 2232.81L5757.08 2195.97L5710.37 2145.31L5573.53 1993.35L5423.54 1826.25L5370.25 1813.75L5340.65 1770.99L5335.38 1763.09L5051.84 1670.99L4963.69 1651.91L4894.62 1686.78L4886.72 1697.96L4555.81 1911.11L4386.09 2063.74L4376.88 2082.16L4310.43 2138.08V2150.57L4267.01 2180.18L4256.49 2182.81L4149.25 2279.52L4122.94 2324.91L4074.92 2367.01L4063.07 2386.09L4022.29 2414.38L3967.03 2466.35L3788.09 2577.53L3750.59 2593.98H3729.54L3725.59 2592.66L3735.46 2582.13L3742.69 2571.61L3744.67 2559.11L3738.75 2549.9L3725.59 2541.35L3713.75 2544.64L3705.85 2549.9L3696.64 2559.11V2571.61V2579.5V2586.08L3695.33 2592.66L3684.14 2620.29L3652.57 2640.68L3575.6 2689.37L3547.97 2715.02L3530.2 2745.28V2776.2L3552.57 2813.04L3545.99 2834.75L3515.07 2853.17V2878.83L3521.65 2888.04L3544.02 2895.94L3532.84 2915.67L3537.44 2930.14V2938.7L3530.86 2941.33H3519.68L3505.21 2951.85L3502.57 2960.41L3499.94 2970.93L3494.02 2980.8L3484.15 2966.33L3476.26 2946.59L3449.94 2932.12H3440.08L3438.76 2941.33L3434.16 2955.14L3431.52 2966.33L3396.66 3096.58L3367.71 3259.08L3141.41 3376.18L3107.86 3380.78L3038.78 3474.86V3487.36L2955.23 3599.19L2921.68 3651.16L2906.55 3669.58L2888.13 3718.92L2873 3728.13L2794.05 3813L2457.23 4251.14L2381.57 4302.45L2364.47 4346.53L2335.52 4351.79L2315.13 4383.37L2300.66 4390.6L2292.1 4400.47L2289.47 4414.94L2292.1 4423.5L2312.5 4433.36L2278.95 4434.68L2260.53 4426.79L2244.74 4432.05C2242.54 4435.12 2237.63 4441.52 2235.53 4442.57C2233.42 4443.63 2230.7 4452.66 2229.61 4457.05L2227.63 4465.6L2229.61 4474.81L2213.82 4470.2H2203.95L2187.5 4485.99L2179.61 4465.6L2168.42 4464.28L2152.64 4479.41V4497.84L2150 4502.44L2138.16 4508.36L2133.56 4526.78L2129.61 4530.73V4535.99V4541.25L2135.53 4545.2L2138.16 4549.15L2119.74 4554.41L2105.93 4559.67L2092.77 4561.65L2081.59 4556.39H2067.77L2061.85 4564.94H2041.46H2034.88H2028.96L2034.88 4573.49V4584.02V4591.91L2043.43 4595.86L2048.69 4601.12L2052.64 4608.36L2061.85 4630.72L2072.38 4641.91L2084.22 4657.7L2096.06 4667.56L2105.27 4676.77L2151.32 4760.32L2161.85 4764.93L2175 4766.24L2181.58 4772.82L2200 4769.53Z" stroke="black" stroke-width="10"/>
</svg>
