<svg width="7820" height="5531" viewBox="0 0 7820 5531" fill="none" xmlns="http://www.w3.org/2000/svg">
<path d="M725.5 4519H712L708.5 4518.5L706 4514V4509.5L708 4503.5L704.5 4498L704 4490.5L697.5 4480.5L691 4475.5L689.5 4469.5L679 4442L675 4438L667.5 4435L665.5 4429L663.5 4427L657.5 4422.5L656.5 4417.5L670 4397.5V4388C670.333 4384.67 671 4377.9 671 4377.5V4367.5L668 4358.5L664.5 4343L648 4327.5L639.5 4318V4310L636.5 4302.5L631 4296L627.5 4290L614.5 4284.5L602 4278.5C598.5 4277.33 591.2 4275 590 4275C588.8 4275 583.833 4277.33 581.5 4278.5L578 4284.5V4292L571.5 4296L551 4300.5L541.5 4292L538 4290V4293.5L541.5 4302.5H538H533.5L528.5 4300.5L516 4296L513.5 4292V4280.5L518 4275L528.5 4271.5H516L503.5 4269V4253L513.5 4247.5L528.5 4238H543.5L591.5 4185.5L595 4169L606 4161.5L610.5 4124.5L617.5 4100V4041.5V4029.5L603.5 3998.5V3972.5L600 3963.5L598 3945.5L586 3924.5L564.5 3908L560 3882.5L570.5 3864.5L576 3841.5V3827L586 3800L587.5 3783V3771.5L591.5 3768L600.5 3764.5L609 3761.5L621.5 3754L639 3743L691.5 3705L710.5 3692.5L712 3685L728.5 3670L807.5 3608.5L819.5 3602L893.5 3536L915.5 3520.5L918.5 3512L950.5 3486L965 3478L1036 3413L1150 3318.5L1244 3255L1376 3171.5L1410.5 3157.5L1592 3040.5L1649.5 2977L1693.5 2921.5L1729 2873.5L1754 2828L1819 2743.5L1833.5 2698.5L1846 2678L1881.5 2582.5L1887.5 2574L1935 2539L1958 2526.5L1978.5 2518.5L1989 2525.5L2003.5 2534L2018 2539L2046 2550L2074.5 2565L2081 2579H2083.5L2091.5 2582L2114 2591.5L2124.5 2595H2169.5H2181.5H2190L2198.5 2589H2226L2235 2592.5H2247L2251.5 2589H2264.5L2281 2577.5L2284.5 2580.5L2293.5 2584L2306.5 2586L2314 2580.5H2323.5L2333.5 2586L2341 2580.5L2351.5 2583L2369.5 2592L2388.5 2595.5L2427 2584L2445.5 2580.5L2476.5 2550.5L2488 2520.5L2543 2475.5L2548 2466L2553 2440.5L2558.5 2438H2569L2587.5 2431.5L2628 2378.5V2351.5L2655.5 2310L2660 2300.5L2701 2227.5L2811.5 2053.5L2827.5 2028.5L2836.5 2008L2937.5 2284.5L2945 2304L2887.5 2328.5V2335L2884 2337L2631.5 2500L2576.5 2550.5L2504.5 2614L2497 2627.5L2446.5 2667V2678.5L2415.5 2704L2405 2706L2322.5 2781.5L2302 2813.5L2265 2845L2256 2861L2226 2881.5L2185 2919.5L2169 2932L2147 2943L2107 2969.5L2053 3004.5L2016 3020.5H1996.5L1992 3019.5L1987 3017.5L1984.5 3013.5V3006.5L1990.5 3001.5L1994 2996L1996.5 2991.5L1995.5 2985.5L1992 2982.5H1984.5L1979.5 2987.5L1981 3008.5L1964.5 3042L1885 3088.5L1861.5 3112L1853 3131L1856 3145.5L1872 3181L1865.5 3200.5L1855 3207L1845.5 3213L1840.5 3219.5L1845.5 3226L1859.5 3231.5L1867.5 3238.5L1862 3250.5L1855 3258L1859.5 3265L1862 3273.5L1851 3286.5H1839L1832 3289V3303.5L1817.5 3318C1815.33 3316.83 1810.5 3314.2 1808.5 3313C1806.5 3311.8 1803.67 3307.83 1802.5 3306L1798.5 3294.5L1794.5 3286.5L1782 3281.5L1758.5 3367.5L1748.5 3427L1729.5 3523.5L1551.5 3618H1530L1481.5 3681V3693L1474 3699L1429 3763L1389 3823L1380 3836.5L1364 3872.5L1351.5 3877L1294.5 3942L1208 4055L1122 4167.5L1079.5 4222L1038 4274L1008 4296L977.5 4317L972 4336.5L967.5 4348L962.5 4353L939.5 4356.5L927.5 4377L923 4379.5L916.5 4384L911 4389L910 4394L916.5 4400L923 4405.5L929 4407V4415L921 4418H904H893.5L874 4413L870.5 4418L865.5 4422V4438V4445L858.5 4447H851H841L836 4449L833 4454V4458.5L826.5 4461.5L819 4460L816 4456.5L815 4452L816 4447L815 4443L812 4442L809 4445L806.5 4452L809 4461.5L804.5 4468L793.5 4475.5L789.5 4487L797 4497.5L792 4502.5L765.5 4516.5L753 4514.5L740 4512L736 4516.5L725.5 4519Z" stroke="black" stroke-width="10"/>
</svg>
