<svg width="7820" height="5531" viewBox="0 0 7820 5531" fill="none" xmlns="http://www.w3.org/2000/svg">
<path d="M2170 4667L2169.5 4678L2133 4695.5L2100.5 4703L2098.5 4710L2086 4723L2040.5 4768V4779.5V4785.5L2032.5 4795.5L2016 4792L1993.5 4773.5L1984.5 4765.5L1966.5 4761L1961 4753L1956 4748.5C1953 4747.5 1946.8 4745.3 1946 4744.5C1945.2 4743.7 1942.67 4737.17 1941.5 4734L1932.5 4729.5L1889.5 4680.5L1877 4667L1861.5 4646.5L1857 4612L1853 4597.5L1836 4579.5L1831.5 4565.5L1817 4533L1779 4509L1769.5 4504.5L1748 4494.5L1732.5 4486L1722 4484.5L1697 4486L1687 4479L1672.5 4464L1660.5 4447L1655.5 4441L1651 4435.5L1646.5 4431.5L1643.5 4423.5L1639.5 4420L1634.5 4418.5L1628 4416H1619.5L1616 4410.5H1612L1599.5 4405L1588.5 4402L1579 4405V4420L1573.5 4418.5L1562.5 4416L1555 4407.5L1527 4386L1514.5 4380L1503 4376.5L1487 4367L1472.5 4363.5L1447.5 4365.5L1423.5 4376.5L1410 4386L1398 4391L1385.5 4401.5L1379 4410.5L1378 4416.5L1385 4430.5L1382 4444.5L1365 4463H1357.5L1349 4459V4450.5L1351 4409V4341.5L1352.5 4316.5L1356.5 4240V4174.5L1360 4114.5V4039L1366 4034.5L1629.5 3934L1676.5 3916H1693L1697 3911.5V3909V3900.5L1695.5 3882L1699.5 3880.5L1711.5 3891.5L1725.5 3889.5L1732.5 3900.5L1728 3907.5L1725.5 3919L1734.5 3905.5L1737 3896L1740.5 3882L1748 3878L1760 3879.5L1765.5 3888.5L1758 3900.5L1767 3894H1780.5L1796 3895L1809.5 3899V3895.5L1815 3890.5L1825.5 3883.5L1839.5 3881.5L1844.5 3883.5L1861.5 3899L1863 3890.5L1866.5 3872.5H1874.5L1880.5 3878.5L1908.5 3890.5V3887L1906.5 3883.5L1893.5 3881.5L1890 3877L1887.5 3865.5L1901.5 3858L1905 3848L1903.5 3834L1905 3818L1921 3806.5H1941.5L1978.5 3807.5L2004.5 3806.5L2008.5 3813.5L2022 3828L2023.5 3826V3814.5L2030.5 3812.5L2034 3814.5L2046 3819L2039.5 3798H2043.5H2046L2052.5 3803.5L2057.5 3804.5L2065 3805.5L2091.5 3798.5V3802.5L2091 3827L2096.5 3817L2103.5 3813L2116 3817L2118 3822L2119.5 3838.5L2127.5 3847L2131 3840.5V3835L2127.5 3823.5L2131 3819L2149 3814L2150 3817L2149 3828.5L2150.5 3833L2156 3836.5L2162 3838L2165.5 3842.5L2180.5 3850L2196.5 3861.5L2204.5 3871L2204 3885.5L2209 3890L2217.5 3885L2230.5 3894L2223.5 3902L2228 3908L2245 3892L2246.5 3894.5V3906H2251L2257 3908.5L2259 3919.5L2248 3930L2261.5 3928L2263 3930L2267 3941.5L2261.5 3953L2273.5 3969V3979.5L2269 3983.5L2265 3992L2285.5 4007.5L2314 4056.5L2310.5 4049L2316.5 4046L2327.5 4049L2330 4044L2347.5 4039.5H2367.5V4031.5L2371 4024.5H2385.5L2399.5 4027.5L2424 4044L2436 4062.5L2437.5 4079.5L2451.5 4083L2483 4110L2494.5 4112L2497 4115L2503.5 4135L2516.5 4153L2523.5 4164.5L2534 4183.5L2542.5 4192L2538 4231L2534 4236.5L2522.5 4245.5V4274L2511 4290L2500 4294L2487 4288.5H2475L2464.5 4295L2439 4305.5L2433.5 4311L2424 4316.5L2419 4330L2409.5 4333L2401.5 4337.5V4341V4349.5L2396.5 4357.5L2388.5 4369L2384.5 4373.5L2380 4378V4380.5L2381.5 4383.5L2383.5 4388.5L2384.5 4398L2374 4410H2364L2362 4412.5V4417L2355 4422.5L2347 4424.5L2338 4422.5L2332.5 4424.5L2328 4428.5L2324.5 4434.5L2319 4441L2310.5 4443L2298.5 4441L2289 4439.5L2283 4440L2169.5 4510.5L2157.5 4517L2157 4522L2157.5 4532L2159.5 4539V4549L2162.5 4559V4576.5L2165.5 4581.5V4594.5L2164.5 4606.5L2165.5 4610.5L2168 4614L2166 4623.5V4625.5L2167.5 4630V4639V4642.5L2170.5 4647L2170 4667Z" stroke="black" stroke-width="10"/>
</svg>
