<svg width="7820" height="5531" viewBox="0 0 7820 5531" fill="none" xmlns="http://www.w3.org/2000/svg">
<path d="M1976.5 2528.5C1956.5 2539.17 1916.2 2560.6 1915 2561L1912 2557L1908 2553L1902.5 2547.5L1894.5 2545.5L1873.5 2526L1876.5 2510L1855.5 2474L1862 2453.5V2439L1854 2425L1843 2416L1831.5 2391.5L1817.5 2383L1805.5 2366.5L1753.5 2337.5L1751 2327.5L1723 2308.5L1687.5 2260.5L1677.5 2253H1636L1615.5 2240.5H1568L1545 2223.5L1539.5 2219L1503.5 2217L1491 2218.5C1486.83 2220.17 1478.4 2223.5 1478 2223.5C1477.6 2223.5 1469.5 2222.5 1465.5 2222L1458 2217.5L1450.5 2205.5L1443 2202.5L1437 2199.5L1433 2193L1435 2188.5L1437 2185L1438 2179L1438.5 2165L1435 2158.5L1420.5 2126.5L1419.5 2119L1425.5 2111L1427.5 2094V2086.5L1432.5 2076L1439.5 2075H1451L1451.5 2071L1461.5 2063.5L1475 2064L1488.5 2069C1490 2070.83 1493.1 2074.5 1493.5 2074.5C1493.9 2074.5 1497 2075.83 1498.5 2076.5L1506 2074L1510.5 2063.5L1548 2026.5L1556.5 2023.5L1574 2024.5L1580.5 2014.5L1588.5 2004.5L1603 2001H1612.5L1614 1998.5L1615.5 1990L1620.5 1984.5L1653 1957.5L1679 1944L1698 1945L1718 1951L1726.5 1953L1729 1950L1741 1940.5L1770.5 1923.5C1773 1920 1778.2 1912.9 1779 1912.5C1779.8 1912.1 1788 1908.67 1792 1907H1800L1809.5 1925L1812.5 1929.5L1821.5 1913.5H1832.5H1845V1908L1847.5 1899.5L1869 1886.5L1870 1888.5L1878 1905.5L1880 1913.5L1890 1915.5L1900 1913.5L1903 1909L1907.5 1898.5L1914 1896H1919.5L1931 1901V1906L1929.5 1920L1925 1942H1937L1941.5 1935H1947.5L1959 1943.5L1964 1950L1974.5 1951.5V1949L1967.5 1940L1965 1932.5V1926.5L1969 1922L1973.5 1920L1983.5 1922.5L2007.5 1935L2014 1938.5L2021 1945.5L2025.5 1953.5L2034.5 1956.5L2037 1947.5V1932.5L2034.5 1924L2033 1914.5L2035.5 1908L2040.5 1904L2049 1901.5L2058.5 1904.5L2066.5 1912L2070 1932.5L2072 1940.5L2072.5 1949.5L2079 1962.5L2081 1959.5L2090.5 1948.5L2100 1935.5L2107.5 1928.5L2120.5 1929L2131.5 1939L2156 1940L2166.5 1942L2179 1939L2181 1930H2187L2199.5 1932L2216.5 1915L2221.5 1916L2230.5 1916.5L2258.5 1903L2291.5 1871.5L2307 1860L2336.5 1826.5L2343 1815.5L2348.5 1815L2359.5 1813.5L2372.5 1825L2383 1834.5H2387L2405.5 1835H2412.5L2421 1837L2430 1836L2449.5 1824.5L2457 1822L2467 1820.5L2491 1827.5L2498.5 1830L2504 1832.5L2509.5 1833.5L2510 1831L2509.5 1828L2508 1823.5L2510 1819.5L2516 1818H2523.5L2527.5 1823.5L2530.5 1822V1818.5L2528.5 1810L2527.5 1801L2532.5 1796.5L2545.5 1794L2551 1789L2602.5 1748.5L2611 1738L2619 1735L2687 1701.5L2695 1697.5L2706 1694.5L2717 1697.5L2717.5 1693L2721.5 1686.5L2728.5 1681L2734 1682.5L2739.5 1684L2745.5 1681.5L2757 1676.5L2765 1674L2771 1678L2781.5 1681.5L2790 1679L2819 1683.5L2758 1867.5L2768.5 1900.5L2775 1917.5L2781.5 1918.5L2795 1924V1930.5L2790.5 1951.5L2809.5 1969L2846.5 1974L2856 1979L2857 1999.5H2849.5V2009.5L2846.5 2018L2704.5 2242L2677 2292.5L2638.5 2354L2637 2383.5L2595 2439.5L2583.5 2445L2563.5 2446.5L2551 2482L2496 2525L2484.5 2553.5L2464.5 2575L2448.5 2587L2434.5 2589.5L2404.5 2602L2386.5 2605L2358.5 2596.5L2352 2593L2342.5 2591L2337 2593C2335.33 2594.17 2331.8 2596.5 2331 2596.5C2330.2 2596.5 2326.67 2591.83 2325 2589.5H2317L2311 2595.5L2300.5 2596.5L2284.5 2589.5L2272 2599H2265.5C2263.9 2599 2257.5 2599.67 2254.5 2600L2240.5 2604L2227.5 2600L2206 2599L2181 2606H2120.5L2105.5 2597L2076.5 2588L2069 2574.5L2049.5 2563.5L2025 2551L2007 2546.5L1996 2542L1976.5 2528.5Z" stroke="black" stroke-width="10"/>
</svg>
